<svg width="48" height="48" viewBox="0 0 48 48" fill="none" xmlns="http://www.w3.org/2000/svg">
<g clip-path="url(#clip0_75_1644)">
<path d="M19.9766 11.838C20.7057 11.1089 21.5032 10.4729 22.3541 9.93539V5.02692H0V16.7243C0 17.3437 0.502125 17.8458 1.12153 17.8458H16.4815C17.0852 15.6438 18.2498 13.5648 19.9766 11.838V11.838Z" fill="#F2FBFF"/>
<path d="M19.9767 11.838C20.7058 11.1089 21.5032 10.4729 22.3542 9.93539V5.02692H18.2495V13.9499C18.744 13.2034 19.3196 12.4952 19.9767 11.838Z" fill="#DFF6FD"/>
<path d="M13.3262 14.078H4.31641C3.92809 14.078 3.61328 13.7632 3.61328 13.3749C3.61328 12.9866 3.92809 12.6718 4.31641 12.6718H13.3262C13.7145 12.6718 14.0293 12.9866 14.0293 13.3749C14.0293 13.7632 13.7145 14.078 13.3262 14.078Z" fill="#60B7FF"/>
<path d="M18.0379 14.078C18.0849 14.078 18.1309 14.0732 18.1753 14.0644C18.3504 13.7942 18.5361 13.5291 18.7322 13.2693C18.6811 12.9312 18.3902 12.6718 18.0379 12.6718H16.1299C15.7416 12.6718 15.4268 12.9866 15.4268 13.3749C15.4268 13.7633 15.7416 14.0781 16.1299 14.0781H18.0379V14.078Z" fill="#60B7FF"/>
<path d="M18.0379 9.81305H4.31641C3.92809 9.81305 3.61328 9.49824 3.61328 9.10992C3.61328 8.72161 3.92809 8.4068 4.31641 8.4068H18.0379C18.4263 8.4068 18.7411 8.72161 18.7411 9.10992C18.7411 9.49824 18.4263 9.81305 18.0379 9.81305Z" fill="#60B7FF"/>
<path d="M22.3541 5.13911H0V1.84858C0 1.22918 0.502125 0.727051 1.12153 0.727051H21.2327C21.8521 0.727051 22.3542 1.22918 22.3542 1.84858V5.13911H22.3541Z" fill="#FD4755"/>
<path d="M21.2326 0.727051H17.1279C17.7473 0.727051 18.2495 1.22918 18.2495 1.84858V5.13911H22.3541V1.84858C22.354 1.22918 21.8519 0.727051 21.2326 0.727051V0.727051Z" fill="#FB2B3A"/>
<path d="M33.7324 34.4541C32.4155 34.8708 31.0281 35.0878 29.6072 35.0878C28.2453 35.0878 26.9139 34.8892 25.646 34.5058V46.1514C25.646 46.7708 26.1481 47.2729 26.7675 47.2729H46.8787C47.4981 47.2729 48.0002 46.7708 48.0002 46.1514V34.4541H33.7324Z" fill="#F2FBFF"/>
<path d="M43.9399 34.4541V46.1515C43.9399 46.7709 43.4378 47.273 42.8184 47.273H46.8787C47.4981 47.273 48.0002 46.7709 48.0002 46.1515V34.4541H43.9399Z" fill="#DFF6FD"/>
<path d="M43.6841 43.5051H34.6743C34.2859 43.5051 33.9712 43.1903 33.9712 42.8019C33.9712 42.4136 34.2859 42.0988 34.6743 42.0988H43.6841C44.0725 42.0988 44.3872 42.4136 44.3872 42.8019C44.3872 43.1903 44.0725 43.5051 43.6841 43.5051Z" fill="#60B7FF"/>
<path d="M31.8704 43.5051H29.9624C29.574 43.5051 29.2593 43.1903 29.2593 42.8019C29.2593 42.4136 29.574 42.0988 29.9624 42.0988H31.8704C32.2588 42.0988 32.5735 42.4136 32.5735 42.8019C32.5735 43.1903 32.2588 43.5051 31.8704 43.5051Z" fill="#60B7FF"/>
<path d="M43.6838 39.2402H29.9624C29.574 39.2402 29.2593 38.9254 29.2593 38.5371C29.2593 38.1488 29.574 37.834 29.9624 37.834H43.6838C44.0723 37.834 44.387 38.1488 44.387 38.5371C44.387 38.9254 44.0723 39.2402 43.6838 39.2402V39.2402Z" fill="#60B7FF"/>
<path d="M46.8788 30.1542H40.0983C39.8276 30.4801 39.541 30.7956 39.2377 31.0989C37.5757 32.7608 35.5596 33.9395 33.3599 34.5663H48.0003V31.2758C48.0003 30.6564 47.4982 30.1542 46.8788 30.1542Z" fill="#FD4755"/>
<path d="M46.8787 30.1542H42.8184C43.4378 30.1542 43.9399 30.6564 43.9399 31.2758V34.5663H48.0002V31.2758C48.0002 30.6564 47.4981 30.1542 46.8787 30.1542Z" fill="#FB2B3A"/>
<path d="M19.9784 31.0969C19.4911 30.6096 19.049 30.094 18.6511 29.5557L14.208 33.9988L17.0764 36.8672L21.5181 32.4255C20.9776 32.0248 20.463 31.5814 19.9784 31.0969V31.0969Z" fill="#C5D3DD"/>
<path d="M12.6329 33.653L4.79414 41.4918C3.47161 42.8143 3.47161 44.9584 4.79414 46.281C6.11668 47.6035 8.26083 47.6035 9.58336 46.281L17.4221 38.4423C17.7992 38.0651 17.7992 37.4536 17.4221 37.0764L13.9987 33.653C13.6216 33.2759 13.01 33.2759 12.6329 33.653V33.653Z" fill="#7A8C98"/>
<path d="M17.4222 37.0765L16.017 35.6713C15.9703 35.8006 15.8963 35.9221 15.7927 36.0258L7.95397 43.8645C6.83844 44.98 5.13837 45.1546 3.83984 44.3883C3.94306 45.0809 4.26097 45.7478 4.79422 46.281C6.11675 47.6035 8.26091 47.6035 9.58344 46.281L17.4222 38.4423C17.7994 38.0651 17.7994 37.4536 17.4222 37.0765Z" fill="#596C76"/>
<path d="M38.0411 17.5202L33.9317 21.6295C33.8177 21.7435 33.6915 21.7674 33.6056 21.7674C33.3739 21.7674 33.1345 21.5923 33.1345 21.2993V17.5202H29.3184C28.4425 17.5202 27.73 16.8076 27.73 15.9317V7.88428C24.8695 8.27728 22.1092 9.57262 19.9101 11.7717C14.5547 17.1271 14.5547 25.8097 19.9101 31.1651C25.2655 36.5205 33.9481 36.5205 39.3035 31.1651C42.9969 27.4717 44.1426 22.1959 42.7416 17.5202H38.0411Z" fill="#26A6FE"/>
<path d="M39.5958 17.5202C41.1151 21.3802 40.3179 25.9487 37.2025 29.0641C35.4342 30.8323 33.1971 31.8541 30.8878 32.1293C29.3933 33.3412 27.7036 34.1926 25.9346 34.6825C30.5408 35.9579 35.6826 34.786 39.3034 31.1651C42.9968 27.4718 44.1425 22.1959 42.7415 17.5202H39.5958Z" fill="#0593FC"/>
<path d="M38.0411 17.5202L33.9317 21.6295C33.8177 21.7435 33.6915 21.7674 33.6056 21.7674C33.3739 21.7674 33.1345 21.5923 33.1345 21.2993V17.5202H29.3184C28.4425 17.5202 27.73 16.8076 27.73 15.9317V11.606C25.8169 11.9682 23.9889 12.8892 22.5082 14.3698C18.5878 18.2902 18.5878 24.6465 22.5082 28.5668C26.4286 32.4873 32.7849 32.4873 36.7053 28.5668C39.6919 25.5802 40.4028 21.1801 38.839 17.5201H38.0411V17.5202Z" fill="#DFF6FD"/>
<path d="M38.0411 17.5202L34.701 20.8602C34.868 23.6281 33.8947 26.452 31.7798 28.567C30.4512 29.8956 28.8426 30.7734 27.144 31.2014C30.4574 32.0365 34.1136 31.1587 36.7053 28.567C39.6919 25.5804 40.4028 21.1802 38.839 17.5202H38.0411Z" fill="#C8EFFE"/>
<path d="M38.0671 17.5202C39.6758 20.9763 39.0564 25.2217 36.2084 28.0698C32.5684 31.7099 26.6456 31.7096 23.0056 28.0698C19.3657 24.4297 19.3657 18.5071 23.0056 14.8671C24.3469 13.5258 25.9978 12.6796 27.7303 12.3267V10.896C25.6341 11.265 23.6272 12.2569 22.0113 13.8727C17.823 18.0609 17.823 24.8758 22.0113 29.0641C24.1057 31.1585 26.856 32.2053 29.607 32.2053C32.3575 32.2053 35.1089 31.158 37.2028 29.0641C40.3181 25.9486 41.1154 21.3802 39.5961 17.5202H38.0671Z" fill="#60B7FF"/>
<path d="M42.8409 0.727051H29.3185C28.3894 0.727051 27.6362 1.48024 27.6362 2.4093V15.9317C27.6362 16.8608 28.3894 17.614 29.3185 17.614H33.0408V21.2994C33.0408 21.799 33.6449 22.0491 33.9981 21.6958L38.08 17.614H42.8409C43.7699 17.614 44.5231 16.8608 44.5231 15.9317V2.4093C44.5231 1.48024 43.7699 0.727051 42.8409 0.727051V0.727051Z" fill="#FFE177"/>
<path d="M42.8411 0.727051H39.1226C40.0516 0.727051 40.8048 1.48024 40.8048 2.4093V15.9317C40.8048 16.8608 40.0516 17.614 39.1226 17.614H42.8411C43.7701 17.614 44.5233 16.8608 44.5233 15.9317V2.4093C44.5233 1.48024 43.7701 0.727051 42.8411 0.727051V0.727051Z" fill="#FFD15B"/>
<path d="M36.0796 11.8331C35.6912 11.8331 35.3765 11.5207 35.3765 11.1324C35.3765 10.1462 35.9582 9.26721 36.8584 8.88809C37.6447 8.55696 38.1374 7.76056 38.0843 6.90621C38.0229 5.91612 37.1992 5.09243 36.2091 5.03093C35.6465 4.99596 35.1123 5.18796 34.7043 5.57159C34.2958 5.9555 34.0708 6.47543 34.0708 7.03568C34.0708 7.424 33.7561 7.73881 33.3677 7.73881C32.9793 7.73881 32.6646 7.424 32.6646 7.03568C32.6646 6.09706 33.057 5.18993 33.7411 4.54681C34.435 3.89468 35.3424 3.56881 36.2961 3.62731C38.0093 3.73372 39.3816 5.10584 39.4878 6.81903C39.5779 8.26896 38.7405 9.62131 37.4041 10.1841C37.0266 10.3431 36.7826 10.7134 36.7826 11.1275C36.7827 11.5158 36.4679 11.8331 36.0796 11.8331Z" fill="#F6AB31"/>
<path d="M36.0796 14.7205C35.6912 14.7205 35.3765 14.4057 35.3765 14.0174V13.5557C35.3765 13.1674 35.6912 12.8526 36.0796 12.8526C36.468 12.8526 36.7827 13.1674 36.7827 13.5557V14.0174C36.7827 14.4057 36.4679 14.7205 36.0796 14.7205Z" fill="#F6AB31"/>
</g>
<defs>
<clipPath id="clip0_75_1644">
<rect width="48" height="48" fill="white"/>
</clipPath>
</defs>
</svg>
