<svg width="48" height="48" viewBox="0 0 48 48" fill="none" xmlns="http://www.w3.org/2000/svg">
<path d="M45.7852 35.7C45.5125 34.982 45.0033 34.3784 44.3417 33.9885C43.68 33.5986 42.9052 33.4458 42.145 33.5552L31.9732 35.0601C32.0563 34.321 31.8866 33.5755 31.4917 32.9452C31.0969 32.3149 30.5001 31.837 29.7988 31.5893L21.416 28.8425C19.963 28.3703 18.3972 28.3744 16.9467 28.8542L9.68363 31.275C9.48449 31.3414 9.3113 31.4689 9.18861 31.6392C9.06592 31.8096 8.99993 32.0142 9 32.2241V42.427C8.99999 42.5723 9.03163 42.7158 9.09271 42.8476C9.15378 42.9793 9.24284 43.0962 9.35367 43.1901C9.46451 43.284 9.59447 43.3526 9.7345 43.3911C9.87454 43.4297 10.0213 43.4373 10.1646 43.4134L15.1402 42.5838C15.6762 42.4934 16.2272 42.5763 16.7129 42.8206L21.5684 45.2487C22.4042 45.6693 23.3152 45.92 24.2485 45.9863C25.1818 46.0526 26.119 45.9332 27.0059 45.635L43.7007 40.0701C44.1295 39.9271 44.525 39.6991 44.8636 39.3998C45.2023 39.1005 45.4771 38.736 45.6717 38.328C45.8663 37.9201 45.9766 37.4771 45.9961 37.0256C46.0156 36.574 45.9438 36.1232 45.7852 35.7Z" fill="#FFD188"/>
<path d="M19 35L29.3406 36.7614C29.9125 36.8654 30.5024 36.7479 30.9908 36.4327C31.4792 36.1176 31.8293 35.6284 31.9702 35.0645L31.9747 35.0594H31.9727C32.0581 34.3085 31.8799 33.5512 31.4685 32.9173C31.473 33.0017 31.5196 35.4025 30.187 35.7181C28.9999 36 19 35 19 35Z" fill="#F9A06F"/>
<path d="M45.6713 36.3281C45.4782 36.7369 45.2038 37.1021 44.8651 37.4015C44.5263 37.701 44.1301 37.9283 43.7006 38.0698L27.0059 43.6345C26.119 43.9327 25.1818 44.0521 24.2485 43.9858C23.3152 43.9195 22.4042 43.6688 21.5684 43.2482L16.7129 40.8201C16.2272 40.5759 15.6762 40.4929 15.1402 40.5833L10.1646 41.4129C10.0213 41.4368 9.8746 41.4292 9.73459 41.3907C9.59458 41.3522 9.46465 41.2836 9.35382 41.1898C9.24299 41.0959 9.15393 40.9791 9.09282 40.8473C9.03172 40.7156 9.00005 40.5721 9 40.4269V42.4269C8.99999 42.5721 9.03163 42.7157 9.09271 42.8474C9.15378 42.9792 9.24284 43.0961 9.35367 43.19C9.46451 43.2839 9.59447 43.3525 9.7345 43.391C9.87454 43.4296 10.0213 43.4372 10.1646 43.4132L15.1402 42.5837C15.6762 42.4932 16.2272 42.5762 16.7129 42.8205L21.5684 45.2486C22.4042 45.6692 23.3152 45.9199 24.2485 45.9862C25.1818 46.0525 26.119 45.9331 27.0059 45.6348L43.7007 40.0699C44.5357 39.7923 45.2282 39.1977 45.6289 38.4143C46.0297 37.6309 46.1066 36.7214 45.8432 35.8818C45.7964 36.0344 45.739 36.1835 45.6713 36.3281Z" fill="#F9A06F"/>
<path d="M8 28.5H5C3.34315 28.5 2 29.8431 2 31.5V42.5C2 44.1568 3.34315 45.5 5 45.5H8C9.65685 45.5 11 44.1568 11 42.5V31.5C11 29.8431 9.65685 28.5 8 28.5Z" fill="#00CF66"/>
<path d="M8 42.4999H5C4.20462 42.4991 3.44206 42.1827 2.87964 41.6203C2.31722 41.0579 2.00087 40.2953 2 39.4999V42.4999C2.00087 43.2953 2.31722 44.0579 2.87964 44.6203C3.44206 45.1827 4.20462 45.4991 5 45.4999H8C8.79538 45.4991 9.55794 45.1827 10.1204 44.6203C10.6828 44.0579 10.9991 43.2953 11 42.4999V39.4999C10.9991 40.2953 10.6828 41.0579 10.1204 41.6203C9.55794 42.1827 8.79538 42.4991 8 42.4999Z" fill="#00B157"/>
<path d="M38.9999 10C39.2652 10 39.5195 9.89466 39.7071 9.70712C39.8946 9.51958 40 9.26522 40 8.99999V2.99999C39.9974 2.73646 39.8909 2.48458 39.7037 2.29913C39.5164 2.11368 39.2635 2.00964 39 2.00964C38.7364 2.00964 38.4835 2.11368 38.2963 2.29913C38.109 2.48458 38.0026 2.73646 38 2.99999V8.99999C38 9.2652 38.1053 9.51955 38.2929 9.70709C38.4804 9.89463 38.7347 10 38.9999 10Z" fill="#D9E1E2"/>
<path d="M43 14C43.2652 14 43.5196 13.8946 43.7071 13.7071C43.8947 13.5195 44 13.2652 44 12.9999V6.99995C44.0013 6.86781 43.9764 6.73674 43.9267 6.61429C43.877 6.49184 43.8036 6.38046 43.7106 6.28657C43.6176 6.19268 43.5069 6.11815 43.385 6.06729C43.263 6.01642 43.1322 5.99023 43 5.99023C42.8679 5.99023 42.7371 6.01642 42.6151 6.06729C42.4931 6.11815 42.3825 6.19268 42.2895 6.28657C42.1965 6.38046 42.123 6.49184 42.0734 6.61429C42.0237 6.73674 41.9988 6.86781 42 6.99995V12.9999C42 13.2652 42.1054 13.5195 42.2929 13.707C42.4804 13.8946 42.7348 14 43 14Z" fill="#D9E1E2"/>
<path d="M10.0001 4C9.73487 4 9.48052 4.10535 9.29298 4.29287C9.10544 4.48039 9.00007 4.73473 9.00005 4.99994V10.9999C8.99877 11.1321 9.02369 11.2631 9.07337 11.3856C9.12305 11.508 9.1965 11.6194 9.28949 11.7133C9.38247 11.8072 9.49314 11.8817 9.6151 11.9326C9.73706 11.9835 9.86789 12.0097 10 12.0097C10.1322 12.0097 10.263 11.9835 10.385 11.9326C10.5069 11.8817 10.6176 11.8072 10.7106 11.7133C10.8036 11.6194 10.877 11.508 10.9267 11.3856C10.9764 11.2631 11.0013 11.1321 11 10.9999V4.99994C11 4.73475 10.8946 4.48042 10.7071 4.2929C10.5196 4.10538 10.2653 4.00002 10.0001 4Z" fill="#D9E1E2"/>
<path d="M6.00008 10C5.73485 10 5.48049 10.1054 5.29295 10.2929C5.10541 10.4804 5.00005 10.7348 5.00005 11V17C4.99877 17.1322 5.02369 17.2632 5.07337 17.3857C5.12305 17.5081 5.1965 17.6195 5.28949 17.7134C5.38247 17.8073 5.49314 17.8818 5.6151 17.9327C5.73706 17.9836 5.86789 18.0097 6.00003 18.0097C6.13217 18.0097 6.263 17.9836 6.38496 17.9327C6.50692 17.8818 6.61759 17.8073 6.71058 17.7134C6.80356 17.6195 6.87701 17.5081 6.92669 17.3857C6.97637 17.2632 7.0013 17.1322 7.00002 17V11C7.00002 10.7348 6.89467 10.4805 6.70715 10.2929C6.51962 10.1054 6.26529 10 6.00008 10Z" fill="#D9E1E2"/>
<path d="M44.7073 26.2929C44.6145 26.2001 44.5042 26.1264 44.3829 26.0761C44.2616 26.0259 44.1316 26 44.0003 26C43.869 26 43.7389 26.0259 43.6176 26.0761C43.4963 26.1264 43.3861 26.2001 43.2933 26.2929L42.0003 27.5858V18C42.0015 17.8679 41.9766 17.7368 41.9269 17.6144C41.8773 17.4919 41.8038 17.3805 41.7108 17.2866C41.6178 17.1927 41.5072 17.1182 41.3852 17.0673C41.2632 17.0165 41.1324 16.9903 41.0003 16.9903C40.8681 16.9903 40.7373 17.0165 40.6153 17.0673C40.4934 17.1182 40.3827 17.1927 40.2897 17.2866C40.1967 17.3805 40.1233 17.4919 40.0736 17.6144C40.0239 17.7368 39.999 17.8679 40.0003 18V27.5858L38.7073 26.2929C38.6148 26.1983 38.5045 26.123 38.3828 26.0713C38.261 26.0197 38.1302 25.9927 37.9979 25.9919C37.8656 25.9911 37.7345 26.0166 37.6121 26.0669C37.4898 26.1172 37.3786 26.1912 37.2851 26.2848C37.1915 26.3783 37.1175 26.4895 37.0672 26.6118C37.0169 26.7342 36.9914 26.8653 36.9922 26.9976C36.993 27.1299 37.02 27.2607 37.0716 27.3824C37.1233 27.5042 37.1986 27.6145 37.2933 27.707L40.2933 30.707C40.3861 30.7998 40.4963 30.8735 40.6176 30.9238C40.7389 30.9741 40.869 30.9999 41.0003 30.9999C41.1316 30.9999 41.2616 30.9741 41.3829 30.9238C41.5042 30.8735 41.6145 30.7998 41.7073 30.707L44.7073 27.707C44.8002 27.6141 44.8738 27.5039 44.9241 27.3826C44.9744 27.2613 45.0002 27.1313 45.0002 27C45.0002 26.8687 44.9744 26.7386 44.9241 26.6173C44.8738 26.496 44.8002 26.3858 44.7073 26.2929Z" fill="#00CF66"/>
<path d="M25 27C31.0751 27 35.9999 22.0751 35.9999 16C35.9999 9.92492 31.0751 5.00006 25 5.00006C18.9249 5.00006 14 9.92492 14 16C14 22.0751 18.9249 27 25 27Z" fill="#FF9500"/>
<path d="M27.0002 24C24.8207 24.0016 22.7004 23.2906 20.9625 21.9753C19.2246 20.66 17.9644 18.8126 17.374 16.7145C16.7836 14.6165 16.8953 12.383 17.6921 10.3544C18.489 8.32574 19.9272 6.61327 21.7877 5.47797C19.9717 6.03257 18.3302 7.04778 17.0228 8.42483C15.7155 9.80187 14.7868 11.4939 14.3272 13.3362C13.8675 15.1785 13.8926 17.1084 14.3999 18.9382C14.9072 20.768 15.8794 22.4353 17.2221 23.778C18.5647 25.1206 20.2321 26.0929 22.0618 26.6002C23.8916 27.1075 25.8215 27.1325 27.6639 26.6729C29.5062 26.2132 31.1982 25.2846 32.5752 23.9772C33.9523 22.6699 34.9675 21.0283 35.5221 19.2123C34.6312 20.674 33.3795 21.882 31.8872 22.7204C30.3948 23.5589 28.712 23.9995 27.0002 24Z" fill="#F87600"/>
<path d="M25 25C29.9706 25 34 20.9706 34 16C34 11.0294 29.9706 7 25 7C20.0294 7 16 11.0294 16 16C16 20.9706 20.0294 25 25 25Z" fill="#FAC100"/>
<path d="M16 16C15.9981 17.6127 16.4301 19.1962 17.2507 20.5845C18.0712 21.9728 19.2502 23.1148 20.6639 23.8908C22.0776 24.6668 23.674 25.0482 25.2858 24.9951C26.8976 24.9419 28.4654 24.4562 29.8249 23.5887C28.1013 24.0993 26.2718 24.1352 24.5295 23.6927C22.7872 23.2502 21.1965 22.3457 19.9254 21.0745C18.6542 19.8034 17.7497 18.2128 17.3072 16.4704C16.8647 14.7281 16.9007 12.8986 17.4112 11.175C16.4893 12.6154 15.9996 14.2899 16 16Z" fill="#FF9500"/>
<path d="M25.7938 15.2092C25.6517 15.1548 25.5185 15.1045 25.4037 15.054C25.2777 14.9983 25.1269 14.9404 24.9604 14.8773C24.0135 14.5176 23.5 14.2335 23.5 13.763C23.5 13.5553 23.7217 13.2328 24.145 13.0184C24.445 12.867 25.5273 12.4513 26.9077 13.4657C27.1215 13.6208 27.3879 13.685 27.6489 13.6443C27.9098 13.6036 28.1441 13.4614 28.3005 13.2486C28.457 13.0358 28.5229 12.7697 28.4838 12.5085C28.4448 12.2473 28.304 12.0122 28.0922 11.8544C27.4712 11.3912 26.7575 11.0675 25.9999 10.9053V10.0002C26.0012 9.86806 25.9763 9.73698 25.9266 9.61453C25.8769 9.49209 25.8034 9.3807 25.7105 9.28681C25.6175 9.19292 25.5068 9.11839 25.3849 9.06753C25.2629 9.01667 25.1321 8.99048 24.9999 8.99048C24.8678 8.99048 24.737 9.01667 24.615 9.06753C24.493 9.11839 24.3824 9.19292 24.2894 9.28681C24.1964 9.3807 24.1229 9.49209 24.0733 9.61453C24.0236 9.73698 23.9987 9.86806 23.9999 10.0002V10.9527C23.7385 11.0206 23.4846 11.1148 23.2422 11.2339C22.1674 11.7777 21.5 12.7469 21.5 13.7632C21.5 15.7027 23.3575 16.4083 24.2505 16.7471C24.3799 16.7964 24.4981 16.8408 24.5963 16.8841C24.7393 16.9468 24.9039 17.0103 25.0807 17.0779C26.0622 17.4529 26.5002 17.7003 26.5002 18.1748C26.5002 18.3826 26.2784 18.7051 25.8552 18.9195C25.5552 19.0709 24.4723 19.4866 23.0924 18.4722C22.8788 18.3151 22.6114 18.2494 22.3493 18.2894C22.0871 18.3294 21.8516 18.4719 21.6945 18.6856C21.5374 18.8993 21.4716 19.1666 21.5117 19.4288C21.5517 19.691 21.6942 19.9265 21.9079 20.0836C22.5286 20.5485 23.2421 20.8744 23.9999 21.0391V22C24.0025 22.2635 24.109 22.5154 24.2962 22.7009C24.4835 22.8863 24.7364 22.9904 24.9999 22.9904C25.2635 22.9904 25.5164 22.8863 25.7036 22.7009C25.8909 22.5154 25.9974 22.2635 25.9999 22V20.9892C26.2615 20.9199 26.5154 20.8243 26.7577 20.7038C27.8324 20.1602 28.4999 19.1906 28.4999 18.1745C28.4999 16.2431 26.7397 15.5705 25.7938 15.2092Z" fill="#F87600"/>
</svg>
