<svg width="48" height="48" viewBox="0 0 48 48" fill="none" xmlns="http://www.w3.org/2000/svg">
<g clip-path="url(#clip0_75_1397)">
<path d="M3.62842 4.03882V11.3993V14.24L7.70392 15.1094V11.9148C7.70392 11.6301 7.93473 11.3993 8.21945 11.3993H9.51995C10.5613 11.3993 11.4056 10.5551 11.4056 9.51363V4.90066L3.62842 4.03882Z" fill="#FFEEE6"/>
<path d="M8.98616 4.17627V9.51364C8.98616 10.555 8.14194 11.3993 7.10047 11.3993H6.29675C5.89775 11.3993 5.57422 11.7229 5.57422 12.1219V14.6551L7.70413 15.1094V11.9149C7.70413 11.6301 7.93494 11.3993 8.21966 11.3993H9.52016C10.5615 11.3993 11.4058 10.5551 11.4058 9.51364V4.90068L8.98616 4.17627Z" fill="#FFDFCF"/>
<path d="M29.2628 13.5325H22.0683C21.4586 13.5325 20.9644 14.0268 20.9644 14.6364V16.8334L25.7029 17.8526L30.3666 16.8334V14.6364C30.3667 14.0268 29.8725 13.5325 29.2628 13.5325Z" fill="#F6A96C"/>
<path d="M30.3665 14.6366V16.8339L27.9472 17.8527V14.6367C27.9472 14.0273 27.4526 13.5328 26.8433 13.5328H29.2626C29.872 13.5327 30.3665 14.0272 30.3665 14.6366Z" fill="#EA9B58"/>
<path d="M30.0343 27.1601H21.3716C20.3306 27.1601 19.534 26.2331 19.6906 25.2039L20.9644 16.8334H27.9474L31.7131 25.1892C31.8797 26.2229 31.0814 27.1601 30.0343 27.1601Z" fill="#EA9B58"/>
<path d="M30.0345 27.16H27.6152C28.6621 27.16 29.46 26.2232 29.2938 25.1888L27.9475 16.8337H30.3668L31.7131 25.1888C31.8802 26.2233 31.0815 27.16 30.0345 27.16Z" fill="#D88A55"/>
<path d="M45.5155 44.4369L44.9736 46.9807C44.8793 47.4235 44.4882 47.7401 44.0355 47.7401H38.3132C37.7834 47.7401 37.354 47.3106 37.354 46.7809V43.5013L45.5155 44.4369Z" fill="#1886EA"/>
<path d="M14.3472 4.90065H10.3327C9.93268 4.90065 9.6084 4.57637 9.6084 4.17634C9.6084 3.77631 9.93268 3.45203 10.3327 3.45203H14.3472C14.7472 3.45203 15.0715 3.77631 15.0715 4.17634C15.0715 4.57637 14.7472 4.90065 14.3472 4.90065Z" fill="#4F66D0"/>
<path d="M1.4834 4.90068V7.77346C1.4834 8.75033 1.87696 9.68596 2.57521 10.369L3.6283 11.3992L5.87512 8.21464C6.24552 7.68964 6.44437 7.06283 6.44437 6.42027V4.90068L3.96384 4.17627L1.4834 4.90068Z" fill="#918291"/>
<path d="M43.1534 44.1661L42.3921 47.74H44.0353C44.4881 47.74 44.8792 47.4235 44.9735 46.9806L45.5154 44.4368L43.1534 44.1661Z" fill="#0070E0"/>
<path d="M7.76446 0.259949H5.12437C3.11352 0.259949 1.4834 1.89007 1.4834 3.90092V4.90076H8.98584L11.4055 3.90092C11.4054 1.89007 9.77531 0.259949 7.76446 0.259949Z" fill="#A2E62E"/>
<path d="M7.76441 0.259949H5.34473C7.35557 0.259949 8.9857 1.89007 8.9857 3.90092V4.90076H11.4054V3.90082C11.4054 1.89007 9.77526 0.259949 7.76441 0.259949Z" fill="#97D729"/>
<path d="M0 30.5928H11.2795V19.7759C11.2795 16.7185 8.80106 14.2399 5.74359 14.2399H3.77184C1.68872 14.24 0 15.9287 0 18.0119L0 30.5928Z" fill="#A2E62E"/>
<path d="M11.2795 30.5929V46.7804C11.2795 47.3102 10.8501 47.7396 10.3204 47.7396H4.68366C4.19325 47.7396 3.78178 47.3696 3.72984 46.8819L2.66747 36.9079C2.66747 36.9079 0 35.3823 0 30.593L5.63981 29.2328L11.2795 30.5929Z" fill="#1886EA"/>
<path d="M8.85986 30.218V47.7396H10.3203C10.8501 47.7396 11.2795 47.3101 11.2795 46.7805V30.5928L8.85986 30.218Z" fill="#0070E0"/>
<path d="M0 30.5928H11.2795V19.7759C11.2795 16.7185 8.80106 14.2399 5.74359 14.2399H3.77184C1.68872 14.24 0 15.9287 0 18.0119L0 30.5928Z" fill="#A2E62E"/>
<path d="M0 30.5928H8.85994L11.2796 19.7759C11.2796 16.7185 8.80116 14.2399 5.74369 14.2399H3.77184C1.68872 14.24 0 15.9287 0 18.0119L0 30.5928Z" fill="#4FC123"/>
<path d="M5.7438 14.2401H3.77196C3.70183 14.2401 3.63218 14.2423 3.56299 14.2461C6.50946 14.3713 8.86005 16.7987 8.86005 19.7759V30.5929H11.2797V19.7759C11.2796 16.7185 8.80118 14.2401 5.7438 14.2401Z" fill="#47A920"/>
<path d="M44.3714 2.98749V11.3993V14.24L40.2959 15.1094V12.0043C40.2959 11.6701 40.025 11.3993 39.6909 11.3993H38.4799C37.4385 11.3993 36.5942 10.5551 36.5942 9.51361V2.98749H44.3714Z" fill="#EB9C8D"/>
<path d="M22.2671 24.7972L20.6242 25.6787L17.9198 26.4648L16.6802 21.9793L19.2214 21.2408C22.6071 20.4438 23.3511 23.6443 22.2671 24.7972Z" fill="#FFEEE6"/>
<path d="M22.3223 25.185L20.6226 25.6795C21.5507 25.1638 22.0345 24.059 21.7265 22.9966C21.4039 21.8888 20.3289 21.1258 19.2212 21.2408L21.0233 20.7163C22.2566 20.358 23.5479 21.0669 23.9072 22.3012C24.2655 23.5344 23.5556 24.8258 22.3223 25.185Z" fill="#FFDFCF"/>
<path d="M17.9198 26.4648L14.4659 27.4691C13.8106 27.6604 13.1436 27.7522 12.483 27.7522C10.2209 27.7522 8.04018 26.6703 6.68286 24.7649L1.80449 17.9164C1.18583 17.049 1.24846 15.9014 1.8854 15.1096C2.01627 14.9468 2.8439 14.7814 3.0614 14.8085C4.76915 15.0213 9.39899 21.8802 9.39899 21.8802C9.6268 22.1991 10.9956 22.637 11.3278 22.8123C11.8817 23.1046 12.5399 23.183 13.1668 23.0004L16.6802 21.9792L17.9198 26.4648Z" fill="#00C27A"/>
<path d="M3.80012 16.0868L8.05299 22.0658C8.66049 22.9163 9.74377 23.2925 10.7469 23.0004L11.3526 22.8244C11.0102 22.6486 10.7062 22.3926 10.4727 22.0658L5.5943 15.2174C4.84843 14.1703 3.39549 13.9261 2.3498 14.6719C2.1713 14.7991 2.01671 14.9471 1.88574 15.11C2.6184 15.1047 3.34243 15.4443 3.80012 16.0868Z" fill="#08B865"/>
<path d="M37.3503 5.7912C38.6461 6.4452 40.4927 7.22014 41.9681 7.22014L44.3716 14.24V17.8527H48.0001L46.9346 4.19473C46.7614 1.97379 44.9086 0.259949 42.6809 0.259949H38.6765C37.0613 0.259949 35.752 1.56935 35.752 3.18448C35.752 4.28501 36.3679 5.29526 37.3503 5.7912Z" fill="#918291"/>
<path d="M46.9346 4.19473C46.7614 1.97379 44.9086 0.259949 42.6809 0.259949H40.2612C42.4889 0.259949 44.3417 1.97379 44.515 4.19473L45.5804 17.8526H48.0001L46.9346 4.19473Z" fill="#7A6D79"/>
<path d="M44.2284 14.2401H42.0724C39.1168 14.2401 36.9303 16.3476 36.7207 19.5918L34.6442 43.4153C34.5964 43.9643 35.0292 44.4365 35.5802 44.4365H44.5117C45.0306 44.4365 46.1953 44.0158 46.1953 43.4969L48.0002 18.0119C48.0002 15.9288 46.3115 14.2401 44.2284 14.2401Z" fill="#FF6672"/>
<path d="M41.7385 38.5319C41.5531 38.5319 41.3677 38.4611 41.2262 38.3197L39.1291 36.2226C38.8463 35.9397 38.8463 35.4812 39.1291 35.1981C39.4121 34.9154 39.8706 34.9154 40.1536 35.1981L42.2507 37.2952C42.7125 37.7259 42.3582 38.5538 41.7385 38.5319Z" fill="#B3DAFE"/>
<path d="M44.2279 14.2401H42.072C42.0018 14.2401 41.9326 14.2424 41.8633 14.2447C43.8607 14.3409 45.4508 15.9906 45.4508 18.0119V43.4969C45.4508 44.0158 45.0302 44.4365 44.5113 44.4365H47.0603C47.5792 44.4365 47.9999 44.0158 47.9999 43.4969V18.0119C47.9998 15.9288 46.3111 14.2401 44.2279 14.2401Z" fill="#FF3342"/>
<path d="M43.4288 24C43.4279 26.3401 43.4705 29.0684 41.6277 30.3809C41.0898 30.7633 40.5973 31.4674 39.9532 31.6924L32.2278 34.388C31.0147 34.8101 29.6877 34.1698 29.2638 32.9577C28.8417 31.7437 29.4811 30.4176 30.6941 29.9937L38.4186 27.2981C39.4056 26.9552 40.0701 26.0193 40.072 24.9744L40.073 22.4161L42.3063 21.5783L43.4288 24Z" fill="#EB9C8D"/>
<path d="M44.7261 22.4161L44.7252 24.9744C44.7242 27.3136 43.5748 29.4605 41.7322 30.773C41.257 31.1111 40.7365 31.394 40.1772 31.6094C41.5081 30.3007 42.304 28.486 42.3049 26.538L42.3058 21.8319L44.7261 22.4161Z" fill="#D78878"/>
<path d="M42.3056 22.4164H40.0723L40.0733 16.5658C40.074 15.7623 40.4808 15.0543 41.0995 14.6366C41.4707 14.3859 41.9176 14.6603 42.3994 14.6607C43.4268 14.6607 43.7448 18.5742 43.8311 20.5636C43.8527 21.0634 42.3056 22.4164 42.3056 22.4164Z" fill="#B3DAFE"/>
<path d="M42.4001 14.2401C41.9567 14.2397 41.5425 14.3637 41.1899 14.5787C41.8603 14.9872 42.3076 15.7248 42.307 16.5667L42.3059 22.4164H44.7256L44.7267 16.5667C44.7277 15.2821 43.6857 14.2401 42.4001 14.2401Z" fill="#8AC9FE"/>
</g>
<defs>
<clipPath id="clip0_75_1397">
<rect width="48" height="48" fill="white"/>
</clipPath>
</defs>
</svg>
