<svg width="48" height="48" viewBox="0 0 48 48" fill="none" xmlns="http://www.w3.org/2000/svg">
<path d="M18.6934 36.1587H29.1348V44.3325H18.6934V36.1587Z" fill="#DAE7EF"/>
<path d="M26.1162 36.1587H29.1348V44.3325H26.1162V36.1587Z" fill="#C1D5E4"/>
<path d="M1.64062 29.1362L0.703125 31.1604V35.5561C0.703125 36.5916 1.54256 37.4311 2.57812 37.4311H45.4219C46.4574 37.4311 47.2969 36.5916 47.2969 35.5561V31.1604L46.3594 29.1362H1.64062Z" fill="#DAE7EF"/>
<path d="M46.3594 29.1362H43.0644V31.3237C43.0644 32.3593 42.225 33.1987 41.1894 33.1987H0.703125V35.5562C0.703125 36.5917 1.54256 37.4312 2.57812 37.4312H45.4219C46.4574 37.4312 47.2969 36.5917 47.2969 35.5562V31.1605L46.3594 29.1362Z" fill="#C1D5E4"/>
<path d="M45.4219 6.45221H2.57812C1.54256 6.45221 0.703125 7.29165 0.703125 8.32721V31.1604H47.2969V8.32721C47.2969 7.29165 46.4574 6.45221 45.4219 6.45221Z" fill="#1886EA"/>
<path d="M45.4219 6.45221H43.0645V31.1604H47.2969V8.32721C47.2969 7.29165 46.4575 6.45221 45.4219 6.45221Z" fill="#0070E0"/>
<path d="M45.4219 38.1343H2.57812C1.1565 38.1343 0 36.9777 0 35.5561V8.32721C0 6.90568 1.1565 5.74908 2.57812 5.74908H45.4219C46.8435 5.74908 48 6.90568 48 8.32721V35.5561C48 36.9777 46.8435 38.1343 45.4219 38.1343ZM2.57812 7.15533C1.93191 7.15533 1.40625 7.68099 1.40625 8.32721V35.5561C1.40625 36.2023 1.93191 36.7279 2.57812 36.7279H45.4219C46.0681 36.7279 46.5938 36.2023 46.5938 35.5561V8.32721C46.5938 7.68099 46.0681 7.15533 45.4219 7.15533H2.57812Z" fill="#98B9D3"/>
<path d="M31.9606 45.0356H15.8677C15.4793 45.0356 15.1646 44.7209 15.1646 44.3325C15.1646 43.9441 15.4793 43.6293 15.8677 43.6293H31.9606C32.349 43.6293 32.6637 43.9441 32.6637 44.3325C32.6637 44.7209 32.349 45.0356 31.9606 45.0356Z" fill="#98B9D3"/>
<path d="M23.9139 27.345C30.6465 27.345 36.1043 21.8872 36.1043 15.1547C36.1043 8.42214 30.6465 2.96436 23.9139 2.96436C17.1814 2.96436 11.7236 8.42214 11.7236 15.1547C11.7236 21.8872 17.1814 27.345 23.9139 27.345Z" fill="#4FC123"/>
<path d="M30.6535 4.99713C31.9369 6.92773 32.6863 9.2441 32.6863 11.7362C32.6863 18.4686 27.2285 23.9265 20.496 23.9265C18.0039 23.9265 15.6875 23.1771 13.7568 21.8937C15.9407 25.1787 19.674 27.3449 23.9144 27.3449C30.6468 27.3449 36.1047 21.8871 36.1047 15.1546C36.1047 10.9143 33.9385 7.18104 30.6535 4.99713Z" fill="#47A920"/>
<path d="M30.2017 10.6115C30.0408 10.4208 29.8053 10.3114 29.5556 10.3114H19.05L18.904 9.53811C18.754 8.7432 18.058 8.16608 17.2489 8.16608H16.4971C16.1087 8.16608 15.7939 8.4808 15.7939 8.8692C15.7939 9.25761 16.1087 9.57233 16.4971 9.57233H17.2489C17.3825 9.57233 17.4974 9.66758 17.5221 9.79892L19.603 20.8205C19.6657 21.1527 19.956 21.3932 20.2939 21.3932H20.7683C20.5607 21.6253 20.4333 21.9308 20.4333 22.2668C20.4333 22.9915 21.0208 23.579 21.7455 23.579C22.4702 23.579 23.0577 22.9915 23.0577 22.2668C23.0577 21.9308 22.9304 21.6253 22.7226 21.3932H25.6152C25.4075 21.6253 25.2801 21.9308 25.2801 22.2668C25.2801 22.9915 25.8677 23.579 26.5924 23.579C27.317 23.579 27.9046 22.9915 27.9046 22.2668C27.9046 21.9308 27.7773 21.6253 27.5695 21.3932H28.2022C28.5906 21.3932 28.9054 21.0785 28.9054 20.69C28.9054 20.3016 28.5906 19.9869 28.2022 19.9869H20.8765L20.5896 18.4675H28.4476C28.7854 18.4675 29.0754 18.2273 29.1384 17.8953L30.3864 11.3115C30.3872 11.3073 30.388 11.303 30.3887 11.2988C30.4309 11.0528 30.3627 10.8024 30.2017 10.6115ZM28.5052 13.6863H26.4867L26.6306 11.7176H28.8784L28.5052 13.6863ZM23.4249 17.0613L23.281 15.0925H24.9738L24.8299 17.0613H23.4249ZM23.1783 13.6863L23.0344 11.7176H25.2204L25.0765 13.6863H23.1783ZM21.6243 11.7176L21.7682 13.6863H19.6872L19.3155 11.7176H21.6243ZM19.9527 15.0925H21.871L22.0149 17.0613H20.3245L19.9527 15.0925ZM26.2399 17.0613L26.3839 15.0925H28.2386L27.8654 17.0613H26.2399Z" fill="#F6F9F9"/>
<path d="M8.73843 25.4391H4.57959C4.19118 25.4391 3.87646 25.1244 3.87646 24.736C3.87646 24.3476 4.19118 24.0329 4.57959 24.0329H8.73843C9.12684 24.0329 9.44156 24.3476 9.44156 24.736C9.44156 25.1244 9.12675 25.4391 8.73843 25.4391Z" fill="#F6F9F9"/>
<path d="M12.3397 28.6106H4.57959C4.19118 28.6106 3.87646 28.2959 3.87646 27.9075C3.87646 27.5191 4.19118 27.2043 4.57959 27.2043H12.3397C12.7281 27.2043 13.0428 27.5191 13.0428 27.9075C13.0428 28.2959 12.7281 28.6106 12.3397 28.6106Z" fill="#F6F9F9"/>
<path d="M44.1747 12.271H42.4151V10.5112C42.4151 10.1228 42.1003 9.80811 41.7119 9.80811C41.3235 9.80811 41.0088 10.1228 41.0088 10.5112V12.271H39.249C38.8606 12.271 38.5459 12.5857 38.5459 12.9741C38.5459 13.3625 38.8606 13.6773 39.249 13.6773H41.0088V15.437C41.0088 15.8254 41.3235 16.1402 41.7119 16.1402C42.1003 16.1402 42.4151 15.8254 42.4151 15.437V13.6773H44.1747C44.5631 13.6773 44.8779 13.3625 44.8779 12.9741C44.8779 12.5857 44.5631 12.271 44.1747 12.271Z" fill="#F6F9F9"/>
</svg>
