<svg width="48" height="48" viewBox="0 0 48 48" fill="none" xmlns="http://www.w3.org/2000/svg">
<g clip-path="url(#clip0_75_1441)">
<path d="M20.6797 19.6942H32.4599V5.34027C32.4599 5.07355 32.2437 4.85736 31.977 4.85736H20.7734L20.6797 5.57314V19.6942Z" fill="#F6A96C"/>
<path d="M30.6584 34.4249C30.6584 30.5792 33.1889 27.3137 36.672 26.2052V20.0834C36.672 19.8167 36.4559 19.6005 36.1891 19.6005H23.8369L23.7432 19.9247V36.7923L23.8369 37.1931H31.1143C30.8189 36.324 30.6584 35.3927 30.6584 34.4249Z" fill="#EA9B58"/>
<path d="M20.7734 4.85736H24.0001V19.6942H20.7734V4.85736Z" fill="#EA9B58"/>
<path d="M14.8673 4.85736L14.7735 5.06483V10.6383C14.7735 10.7464 14.6856 10.8343 14.5775 10.8343H10.5324C10.4243 10.8343 10.3364 10.7464 10.3364 10.6383V5.04739L10.2427 4.85736H4.81933C4.55261 4.85736 4.33643 5.07355 4.33643 5.34027V19.6942H20.7735V4.85736H14.8673Z" fill="#FED2A4"/>
<path d="M7.58168 19.6942V5.34027C7.58168 5.07355 7.79786 4.85736 8.06458 4.85736H4.81933C4.55261 4.85736 4.33643 5.07355 4.33643 5.34027V19.6942H7.58168Z" fill="#FFBD86"/>
<path d="M14.5776 10.9281H10.5325C10.3724 10.9281 10.2427 10.7984 10.2427 10.6384V4.85736H14.8673V10.6384C14.8674 10.7984 14.7376 10.9281 14.5776 10.9281Z" fill="#FE646F"/>
<path d="M12.3141 10.6384V4.85736H10.2427V10.6383C10.2427 10.7983 10.3724 10.928 10.5325 10.928H12.6039C12.4438 10.928 12.3141 10.7984 12.3141 10.6384Z" fill="#FD4755"/>
<path d="M23.8369 19.6006H27.3804V37.1932H23.8369V19.6006Z" fill="#D88A55"/>
<path d="M23.8369 37.1932H0.482906C0.216188 37.1932 0 36.9771 0 36.7103V20.0835C0 19.8168 0.216188 19.6006 0.482906 19.6006H23.8369V37.1932Z" fill="#F6A96C"/>
<path d="M3.25369 36.7103V20.0835C3.25369 19.8168 3.46987 19.6006 3.73659 19.6006H0.482906C0.216188 19.6006 0 19.8168 0 20.0835V36.7103C0 36.9771 0.216188 37.1932 0.482906 37.1932H3.73659C3.46987 37.1932 3.25369 36.9771 3.25369 36.7103Z" fill="#EA9B58"/>
<path d="M14.2055 26.4146H9.63109C9.47106 26.4146 9.34131 26.2848 9.34131 26.1248V19.6005H14.4952V26.1248C14.4952 26.2848 14.3656 26.4146 14.2055 26.4146Z" fill="#FE646F"/>
<path d="M11.7343 26.1248V19.6005H9.34131V26.1248C9.34131 26.2848 9.47106 26.4146 9.63109 26.4146H12.0241C11.864 26.4146 11.7343 26.2848 11.7343 26.1248Z" fill="#FD4755"/>
<path d="M39.2826 43.1425C44.0972 43.1425 48.0002 39.2395 48.0002 34.4249C48.0002 29.6103 44.0972 25.7073 39.2826 25.7073C34.468 25.7073 30.5649 29.6103 30.5649 34.4249C30.5649 39.2395 34.468 43.1425 39.2826 43.1425Z" fill="#1886EA"/>
<path d="M34.6239 34.4249C34.6239 30.31 37.4752 26.8615 41.3095 25.9458C40.6589 25.7908 39.9806 25.7072 39.2826 25.7072C34.4679 25.7072 30.5649 29.6102 30.5649 34.4248C30.5649 39.2394 34.4679 43.1424 39.2826 43.1424C39.9806 43.1424 40.659 43.0589 41.3096 42.9037C37.4752 41.9882 34.6239 38.5398 34.6239 34.4249Z" fill="#0070E0"/>
<path d="M38.6352 38.0093C38.4487 38.0093 38.2698 37.9352 38.138 37.8034L34.598 34.2633C34.3234 33.9886 34.3234 33.5435 34.598 33.2689C34.8726 32.9944 35.3178 32.9944 35.5923 33.2689L38.6352 36.3118L43.3905 31.5565C43.6651 31.282 44.1103 31.282 44.3848 31.5565C44.6594 31.8311 44.6594 32.2763 44.3848 32.5509L39.1323 37.8033C39.0005 37.9352 38.8218 38.0093 38.6352 38.0093Z" fill="white"/>
</g>
<defs>
<clipPath id="clip0_75_1441">
<rect width="48" height="48" fill="white"/>
</clipPath>
</defs>
</svg>
