<svg width="48" height="48" viewBox="0 0 48 48" fill="none" xmlns="http://www.w3.org/2000/svg">
<path d="M30.668 3.92194L30.8263 3.82819C30.7487 1.701 29.0008 0 26.8545 0C24.7083 0 22.9603 1.701 22.8828 3.82819L23.0532 3.92194H30.668Z" fill="#EA9B58"/>
<path d="M28.4944 0.354C27.9944 0.127125 27.4395 0 26.8545 0C24.7083 0 22.9603 1.701 22.8828 3.82819H26.1626C26.219 2.28075 27.1598 0.959625 28.4944 0.354Z" fill="#D88A55"/>
<path d="M38.4866 15.2191C34.9482 15.2191 31.9997 12.4551 31.7738 8.92655L31.7682 8.8388H19.8695C19.3887 8.8388 18.9975 8.44758 18.9975 7.96673V5.20251H13.8818C13.3484 5.20251 12.916 5.63489 12.916 6.16833V36.3147H22.6838C22.8095 36.3147 22.9241 36.3729 22.9982 36.4744C23.0723 36.5759 23.0928 36.7028 23.0545 36.8224L20.6325 44.3906L20.6968 44.4286C20.8895 44.5427 21.0567 44.6896 21.1945 44.859H39.8275C40.361 44.859 40.7933 44.4267 40.7933 43.8932V14.8117C40.0735 15.0752 39.2966 15.2191 38.4866 15.2191Z" fill="#FED2A4"/>
<path d="M37.412 39.1659H22.3047L21.2681 42.405H37.8566C38.1233 42.405 38.3395 42.1889 38.3395 41.9221V39.2596L37.412 39.1659Z" fill="#EAF6FF"/>
<path d="M31.7739 8.9265L31.7683 8.83875H19.8696C19.3888 8.83875 18.9976 8.44753 18.9976 7.96668V7.65637H15.853C15.5863 7.65637 15.3701 7.87256 15.3701 8.13928V36.3145H22.684C22.8097 36.3145 22.9243 36.3727 22.9984 36.4743C23.0725 36.5758 23.093 36.7027 23.0547 36.8223L22.2747 39.2595H38.3395V15.2155C34.8671 15.1399 31.9966 12.4059 31.7739 8.9265Z" fill="white"/>
<path d="M19.4427 36.3146V8.83212C19.1238 8.67443 18.9038 8.34668 18.9038 7.96681V7.65649H15.853C15.5863 7.65649 15.3701 7.87268 15.3701 8.1394V36.3146H19.4427Z" fill="#EAF6FF"/>
<path d="M31.7583 8.49081C31.7583 6.68181 32.4772 5.03865 33.6427 3.82825H19.8696C19.3362 3.82825 18.9038 4.26062 18.9038 4.79406V7.96675C18.9038 8.50018 19.3362 8.93256 19.8696 8.93256H31.7744C31.7649 8.7864 31.7583 8.6394 31.7583 8.49081Z" fill="#F6A96C"/>
<path d="M22.9996 7.96675V4.79406C22.9996 4.26062 23.4319 3.82825 23.9654 3.82825H19.8696C19.3362 3.82825 18.9038 4.26062 18.9038 4.79406V7.96675C18.9038 8.50018 19.3362 8.93256 19.8696 8.93256H23.9654C23.432 8.93256 22.9996 8.50018 22.9996 7.96675Z" fill="#EA9B58"/>
<path d="M20.9648 18.399C22.6476 18.399 24.0117 17.0349 24.0117 15.3522C24.0117 13.6694 22.6476 12.3053 20.9648 12.3053C19.2821 12.3053 17.918 13.6694 17.918 15.3522C17.918 17.0349 19.2821 18.399 20.9648 18.399Z" fill="#0070E0"/>
<path d="M20.9651 16.8405C20.7884 16.8405 20.6173 16.774 20.4867 16.6527L19.1124 15.3766C18.8278 15.1124 18.8113 14.6675 19.0755 14.3829C19.3397 14.0984 19.7846 14.0818 20.0693 14.346L20.8607 15.0809L22.9472 12.1919C23.1745 11.8771 23.614 11.8062 23.9289 12.0336C24.2437 12.2609 24.3146 12.7004 24.0872 13.0152L21.5351 16.549C21.4171 16.7124 21.2347 16.8172 21.0342 16.8371C21.0112 16.8394 20.988 16.8405 20.9651 16.8405Z" fill="#99C6F3"/>
<path d="M34.4463 13.8636H25.6768C25.2884 13.8636 24.9736 14.1785 24.9736 14.5668C24.9736 14.9551 25.2884 15.2699 25.6768 15.2699H35.3946C35.7134 15.2699 35.9823 15.0576 36.0685 14.7666C35.4847 14.5406 34.9396 14.2355 34.4463 13.8636Z" fill="#3296FA"/>
<path d="M33.0388 17.6257H25.6768C25.2884 17.6257 24.9736 17.3109 24.9736 16.9226C24.9736 16.5343 25.2884 16.2195 25.6768 16.2195H33.0388C33.4271 16.2195 33.7419 16.5343 33.7419 16.9226C33.7419 17.3109 33.4271 17.6257 33.0388 17.6257Z" fill="#3296FA"/>
<path d="M20.9648 26.5461C22.6476 26.5461 24.0117 25.182 24.0117 23.4993C24.0117 21.8165 22.6476 20.4524 20.9648 20.4524C19.2821 20.4524 17.918 21.8165 17.918 23.4993C17.918 25.182 19.2821 26.5461 20.9648 26.5461Z" fill="#0070E0"/>
<path d="M20.9651 24.9877C20.7884 24.9877 20.6173 24.9212 20.4867 24.7999L19.1124 23.5238C18.8278 23.2597 18.8113 22.8147 19.0755 22.5301C19.3397 22.2457 19.7846 22.2291 20.0693 22.4932L20.8607 23.2282L22.9472 20.3392C23.1745 20.0243 23.614 19.9534 23.9289 20.1808C24.2437 20.4082 24.3146 20.8477 24.0872 21.1625L21.5351 24.6962C21.4171 24.8596 21.2347 24.9644 21.0342 24.9843C21.0112 24.9865 20.988 24.9877 20.9651 24.9877Z" fill="#99C6F3"/>
<path d="M35.3946 23.4171H25.6768C25.2884 23.4171 24.9736 23.1023 24.9736 22.714C24.9736 22.3257 25.2884 22.0109 25.6768 22.0109H35.3946C35.7829 22.0109 36.0977 22.3257 36.0977 22.714C36.0977 23.1023 35.7829 23.4171 35.3946 23.4171Z" fill="#3296FA"/>
<path d="M33.0388 25.7729H25.6768C25.2884 25.7729 24.9736 25.4581 24.9736 25.0698C24.9736 24.6815 25.2884 24.3667 25.6768 24.3667H33.0388C33.4271 24.3667 33.7419 24.6815 33.7419 25.0698C33.7419 25.4581 33.4271 25.7729 33.0388 25.7729Z" fill="#3296FA"/>
<path d="M20.9648 34.6934C22.6476 34.6934 24.0117 33.3292 24.0117 31.6465C24.0117 29.9637 22.6476 28.5996 20.9648 28.5996C19.2821 28.5996 17.918 29.9637 17.918 31.6465C17.918 33.3292 19.2821 34.6934 20.9648 34.6934Z" fill="#0070E0"/>
<path d="M20.9651 33.1349C20.7884 33.1349 20.6173 33.0683 20.4867 32.947L19.1124 31.671C18.8278 31.4068 18.8113 30.9618 19.0755 30.6772C19.3397 30.3928 19.7846 30.3762 20.0693 30.6404L20.8607 31.3753L22.9472 28.4864C23.1745 28.1716 23.614 28.1006 23.9289 28.328C24.2437 28.5554 24.3146 28.9949 24.0872 29.3097L21.5351 32.8434C21.4171 33.0068 21.2347 33.1116 21.0342 33.1315C21.0112 33.1337 20.988 33.1349 20.9651 33.1349Z" fill="#99C6F3"/>
<path d="M35.3946 31.5643H25.6768C25.2884 31.5643 24.9736 31.2495 24.9736 30.8612C24.9736 30.4729 25.2884 30.1581 25.6768 30.1581H35.3946C35.7829 30.1581 36.0977 30.4729 36.0977 30.8612C36.0977 31.2495 35.7829 31.5643 35.3946 31.5643Z" fill="#3296FA"/>
<path d="M33.0388 33.9202H25.6768C25.2884 33.9202 24.9736 33.6054 24.9736 33.217C24.9736 32.8287 25.2884 32.5139 25.6768 32.5139H33.0388C33.4271 32.5139 33.7419 32.8287 33.7419 33.217C33.7419 33.6054 33.4271 33.9202 33.0388 33.9202Z" fill="#3296FA"/>
<path d="M38.4866 15.3129C42.2544 15.3129 45.3087 12.2585 45.3087 8.49079C45.3087 4.72306 42.2544 1.6687 38.4866 1.6687C34.7189 1.6687 31.6646 4.72306 31.6646 8.49079C31.6646 12.2585 34.7189 15.3129 38.4866 15.3129Z" fill="#FAC100"/>
<path d="M34.466 8.49079C34.466 5.20326 36.7916 2.45939 39.8874 1.81326C39.4352 1.71886 38.9668 1.6687 38.4866 1.6687C34.7189 1.6687 31.6646 4.72308 31.6646 8.49079C31.6646 12.2585 34.7189 15.3129 38.4866 15.3129C38.9668 15.3129 39.4352 15.2627 39.8874 15.1683C36.7916 14.5221 34.466 11.7783 34.466 8.49079Z" fill="#FF9A00"/>
<path d="M39.2707 7.78757H37.7027C37.3082 7.78757 36.9872 7.46657 36.9872 7.07207C36.9872 6.67757 37.3082 6.35657 37.7027 6.35657H40.4653C40.8536 6.35657 41.1685 6.04176 41.1685 5.65345C41.1685 5.26514 40.8536 4.95032 40.4653 4.95032H39.1899V4.19751C39.1899 3.8092 38.8751 3.49438 38.4867 3.49438C38.0984 3.49438 37.7836 3.8092 37.7836 4.19751V4.95032H37.7028C36.5329 4.95032 35.5811 5.90217 35.5811 7.07207C35.5811 8.24198 36.5329 9.19382 37.7028 9.19382H39.2708C39.6653 9.19382 39.9863 9.51482 39.9863 9.90932C39.9863 10.3038 39.6653 10.6248 39.2708 10.6248H36.5082C36.1199 10.6248 35.8051 10.9396 35.8051 11.3279C35.8051 11.7163 36.1199 12.0311 36.5082 12.0311H37.7837V12.7839C37.7837 13.1722 38.0985 13.487 38.4868 13.487C38.8751 13.487 39.19 13.1722 39.19 12.7839V12.0311H39.2708C40.4407 12.0311 41.3925 11.0792 41.3925 9.90932C41.3925 8.73942 40.4407 7.78757 39.2707 7.78757Z" fill="#F87600"/>
<path d="M12.7153 36.3146V33.8111L12.6216 33.3743H9.76709C9.50037 33.3743 9.28418 33.5905 9.28418 33.8572V36.3146H12.7153Z" fill="#FFD15B"/>
<path d="M16.4541 36.3146H19.8853V33.8572C19.8853 33.5905 19.6691 33.3743 19.4024 33.3743H16.5479L16.4541 33.804V36.3146Z" fill="#FFD15B"/>
<path d="M16.548 36.3146V32.7773C16.548 32.5106 16.3318 32.2944 16.0651 32.2944H13.1045C12.8378 32.2944 12.6216 32.5106 12.6216 32.7773V36.3146H16.548Z" fill="#FFE177"/>
<path d="M22.6839 36.2208H6.86914L9.42214 44.198C9.52892 44.179 9.63823 44.1674 9.75036 44.1674C10.4513 44.1674 11.0626 44.5556 11.3825 45.1279H18.1152C18.4352 44.5557 19.0464 44.1674 19.7474 44.1674C20.1018 44.1674 20.4323 44.2683 20.715 44.4403L23.1439 36.8509C23.2436 36.5393 23.0111 36.2208 22.6839 36.2208Z" fill="#FE646F"/>
<path d="M9.42214 44.198C9.52892 44.179 9.63823 44.1674 9.75036 44.1674C10.4513 44.1674 11.0626 44.5556 11.3825 45.1279H12.3289L9.4783 36.2209H6.86914L9.42214 44.198Z" fill="#FD4755"/>
<path d="M17.9232 46.4404C17.8944 46.3103 17.8781 46.1755 17.8781 46.0368C17.8781 45.6677 17.987 45.3243 18.1723 45.0342H11.3257C11.511 45.3243 11.62 45.6677 11.62 46.0368C11.62 46.1755 11.6037 46.3103 11.5749 46.4404H17.9232Z" fill="#CDBFBA"/>
<path d="M9.51603 44.1837L6.13316 33.6138C6.03997 33.3226 5.76922 33.125 5.4635 33.125H3.39453C3.00622 33.125 2.69141 33.4398 2.69141 33.8281C2.69141 34.2164 3.00622 34.5312 3.39453 34.5312H4.95031L8.26906 44.9009C8.56597 44.5146 9.00922 44.2475 9.51603 44.1837Z" fill="#CDBFBA"/>
<path d="M19.7474 48C20.8317 48 21.7106 47.1211 21.7106 46.0368C21.7106 44.9526 20.8317 44.0736 19.7474 44.0736C18.6631 44.0736 17.7842 44.9526 17.7842 46.0368C17.7842 47.1211 18.6631 48 19.7474 48Z" fill="#9E9797"/>
<path d="M19.4754 46.0368C19.4754 45.2558 19.9326 44.5833 20.593 44.2671C20.3366 44.1444 20.0507 44.0736 19.7474 44.0736C18.6632 44.0736 17.7842 44.9525 17.7842 46.0368C17.7842 47.121 18.6632 48 19.7474 48C20.0506 48 20.3366 47.9293 20.593 47.8065C19.9326 47.4903 19.4754 46.8179 19.4754 46.0368Z" fill="#766E6E"/>
<path d="M9.75033 48C10.8346 48 11.7135 47.1211 11.7135 46.0368C11.7135 44.9526 10.8346 44.0736 9.75033 44.0736C8.66607 44.0736 7.78711 44.9526 7.78711 46.0368C7.78711 47.1211 8.66607 48 9.75033 48Z" fill="#9E9797"/>
<path d="M9.47836 46.0368C9.47836 45.2558 9.93558 44.5833 10.596 44.2671C10.3395 44.1444 10.0536 44.0736 9.75033 44.0736C8.66611 44.0736 7.78711 44.9525 7.78711 46.0368C7.78711 47.121 8.66611 48 9.75033 48C10.0535 48 10.3395 47.9293 10.596 47.8065C9.93558 47.4903 9.47836 46.8179 9.47836 46.0368Z" fill="#766E6E"/>
<path d="M18.707 42.3228C18.3187 42.3228 18.0039 42.008 18.0039 41.6197V38.6749C18.0039 38.2866 18.3187 37.9718 18.707 37.9718C19.0953 37.9718 19.4102 38.2866 19.4102 38.6749V41.6197C19.4102 42.008 19.0954 42.3228 18.707 42.3228Z" fill="#E41F2D"/>
<path d="M16.0566 42.3228C15.6683 42.3228 15.3535 42.008 15.3535 41.6197V38.6749C15.3535 38.2866 15.6683 37.9718 16.0566 37.9718C16.445 37.9718 16.7598 38.2866 16.7598 38.6749V41.6197C16.7598 42.008 16.445 42.3228 16.0566 42.3228Z" fill="#E41F2D"/>
<path d="M13.4067 42.3228C13.0184 42.3228 12.7036 42.008 12.7036 41.6197V38.6749C12.7036 38.2866 13.0184 37.9718 13.4067 37.9718C13.7951 37.9718 14.1099 38.2866 14.1099 38.6749V41.6197C14.1099 42.008 13.7951 42.3228 13.4067 42.3228Z" fill="#E41F2D"/>
<path d="M10.7563 42.3228C10.368 42.3228 10.0532 42.008 10.0532 41.6197V38.6749C10.0532 38.2866 10.368 37.9718 10.7563 37.9718C11.1447 37.9718 11.4595 38.2866 11.4595 38.6749V41.6197C11.4595 42.008 11.1447 42.3228 10.7563 42.3228Z" fill="#E41F2D"/>
<path d="M35.3945 17.626C35.7829 17.626 36.0977 17.3112 36.0977 16.9229C36.0977 16.5345 35.7829 16.2197 35.3945 16.2197C35.0062 16.2197 34.6914 16.5345 34.6914 16.9229C34.6914 17.3112 35.0062 17.626 35.3945 17.626Z" fill="#3296FA"/>
<path d="M35.3945 25.7728C35.7829 25.7728 36.0977 25.458 36.0977 25.0697C36.0977 24.6814 35.7829 24.3666 35.3945 24.3666C35.0062 24.3666 34.6914 24.6814 34.6914 25.0697C34.6914 25.458 35.0062 25.7728 35.3945 25.7728Z" fill="#3296FA"/>
<path d="M35.3945 33.9207C35.7829 33.9207 36.0977 33.6059 36.0977 33.2175C36.0977 32.8292 35.7829 32.5144 35.3945 32.5144C35.0062 32.5144 34.6914 32.8292 34.6914 33.2175C34.6914 33.6059 35.0062 33.9207 35.3945 33.9207Z" fill="#3296FA"/>
</svg>
