<svg width="48" height="48" viewBox="0 0 48 48" fill="none" xmlns="http://www.w3.org/2000/svg">
<path d="M2.30381 32.5846H45.6965C46.5201 30.2188 46.969 27.6775 46.969 25.0311C46.969 12.3457 36.6855 2.06213 24.0001 2.06213C11.3147 2.06213 1.03125 12.3457 1.03125 25.0311C1.03125 27.6775 1.48022 30.2187 2.30381 32.5846Z" fill="#4CE088"/>
<path d="M2.30371 7.42969V32.5846C3.94312 37.294 7.07268 41.3049 11.1271 44.0544L36.8701 44.0564C40.9259 41.3069 44.0566 37.2952 45.6964 32.5846V7.42969H2.30371Z" fill="#D3DCFB"/>
<path d="M2.30371 32.5846C3.94312 37.294 7.07268 41.3049 11.1271 44.0544L20.7501 44.0552V16.0222C17.4979 15.6901 18.302 12.8388 18.302 12.8388C14.9921 11.3856 16.7368 7.61707 16.7368 7.61707C16.6504 7.55538 16.5732 7.49275 16.5016 7.42957H2.30371V32.5846Z" fill="#BEC8F7"/>
<path d="M13.0248 4.82532C13.0248 6.36722 11.7748 7.61719 10.2329 7.61719H45.6967V4.82532H13.0248Z" fill="#E9EFFF"/>
<path d="M10.2329 7.61719H16.7371C15.1121 6.45807 16.2215 4.99219 16.2215 4.99219C16.1653 4.93604 16.1157 4.88035 16.0711 4.82532H13.0248C13.0248 6.36722 11.7748 7.61719 10.2329 7.61719Z" fill="#D3DCFB"/>
<path d="M2.30371 4.82532V7.61719H10.4201C11.962 7.61719 13.212 6.36722 13.212 4.82532H2.30371Z" fill="#4FABF7"/>
<path d="M44.0987 0H3.90149C3.01912 0 2.30371 0.715312 2.30371 1.59778V4.99219H45.6964V1.59778C45.6965 0.715312 44.9811 0 44.0987 0Z" fill="#3C58A0"/>
<path d="M16.2212 0H3.90149C3.01912 0 2.30371 0.715312 2.30371 1.59778V4.99219H16.2212C15.251 4.02197 16.0734 3.19922 16.0734 3.19922V1.79297C15.176 0.895406 16.2212 0 16.2212 0Z" fill="#2A428C"/>
<path d="M6.44404 3.48066C6.98779 3.48066 7.4286 3.03986 7.4286 2.4961C7.4286 1.95234 6.98779 1.51154 6.44404 1.51154C5.90028 1.51154 5.45947 1.95234 5.45947 2.4961C5.45947 3.03986 5.90028 3.48066 6.44404 3.48066Z" fill="#FF4155"/>
<path d="M9.33564 3.48066C9.8794 3.48066 10.3202 3.03986 10.3202 2.4961C10.3202 1.95234 9.8794 1.51154 9.33564 1.51154C8.79188 1.51154 8.35107 1.95234 8.35107 2.4961C8.35107 3.03986 8.79188 3.48066 9.33564 3.48066Z" fill="#FFDD40"/>
<path d="M12.2277 3.48066C12.7715 3.48066 13.2123 3.03986 13.2123 2.4961C13.2123 1.95234 12.7715 1.51154 12.2277 1.51154C11.684 1.51154 11.2432 1.95234 11.2432 2.4961C11.2432 3.03986 11.684 3.48066 12.2277 3.48066Z" fill="#4CE088"/>
<path d="M36.8442 3.19922H16.0737C15.6854 3.19922 15.3706 2.8845 15.3706 2.49609C15.3706 2.10769 15.6854 1.79297 16.0737 1.79297H36.8442C37.2325 1.79297 37.5474 2.10769 37.5474 2.49609C37.5474 2.8845 37.2325 3.19922 36.8442 3.19922Z" fill="#1C2E7A"/>
<path d="M41.9111 3.19922H40.1187C39.7303 3.19922 39.4155 2.8845 39.4155 2.49609C39.4155 2.10769 39.7303 1.79297 40.1187 1.79297H41.9111C42.2994 1.79297 42.6142 2.10769 42.6142 2.49609C42.6142 2.8845 42.2994 3.19922 41.9111 3.19922Z" fill="#1C2E7A"/>
<path d="M11.3544 44.2065C11.3566 44.208 11.359 44.2094 11.3612 44.2109L37.1125 43.8899C37.114 43.8889 37.1155 43.8878 37.117 43.8868C40.564 40.5051 42.7033 35.7951 42.7033 30.5848C42.7033 20.2932 34.3603 11.9502 24.0687 11.9502C13.7771 11.9502 5.43408 20.2932 5.43408 30.5848C5.43408 35.9614 7.71202 40.8053 11.3544 44.2065Z" fill="#E9EFFF"/>
<path d="M11.1956 44.0544L20.7503 44.0552V16.0222C17.6731 15.708 18.2272 13.1389 18.2957 12.8632C10.8303 15.2936 5.43408 22.3085 5.43408 30.5849C5.43408 35.8824 7.64658 40.6616 11.1956 44.0544Z" fill="#D3DCFB"/>
<path d="M20.7893 37.4839C21.7054 38.1953 22.8359 38.5816 24.0002 38.5816C25.1645 38.5816 26.2949 38.1952 27.211 37.4839C27.89 36.9566 28.6145 36.239 29.2484 35.3348C29.0786 35.2857 28.907 35.2393 28.7333 35.1958C28.5368 35.1466 28.3642 35.0285 28.2528 34.8712C27.7389 34.1462 27.5966 33.0256 27.5687 32.2129C27.2082 32.6327 26.8299 32.9839 26.4684 33.2646C25.0188 34.3903 22.9797 34.3888 21.532 33.2646C21.1705 32.9839 20.7923 32.6327 20.4319 32.2129C20.4033 33.0437 20.2553 34.1964 19.7131 34.9191C19.6205 35.0424 19.478 35.1431 19.307 35.1855C19.12 35.2318 18.935 35.2817 18.752 35.3346C19.3858 36.2388 20.1103 36.9565 20.7893 37.4839Z" fill="#FCAD6D"/>
<path d="M23.9601 34.1075C23.1014 34.0989 22.245 33.8181 21.532 33.2645C21.1705 32.9838 20.7923 32.6326 20.4319 32.2128C20.4033 33.0436 20.2553 34.1962 19.7131 34.919C19.6205 35.0422 19.478 35.143 19.307 35.1854C19.12 35.2317 18.935 35.2816 18.752 35.3345C19.3859 36.2388 20.1104 36.9565 20.7894 37.4838C21.1682 37.778 21.584 38.0155 22.0235 38.1942C23.4139 36.9177 23.8376 35.2044 23.9601 34.1075Z" fill="#FD995B"/>
<path d="M22.8067 15.3295C19.2228 15.8178 18.8823 17.8497 18.8807 18.5951C18.8803 18.7515 18.7937 18.8964 18.6531 18.9648C16.7889 19.8716 17.794 24.2424 17.794 24.2424C17.9812 24.2548 18.262 24.4155 18.4082 24.4863C18.444 24.2636 18.5024 24.0443 18.5849 23.8324C18.6478 23.6709 18.7263 23.5077 18.8246 23.3536C18.9951 23.0861 19.0728 22.7707 19.0496 22.4552C18.9826 21.5434 18.9301 19.8315 20.1336 19.29C21.1533 18.8312 22.4041 19.0969 23.2017 19.3621C23.7197 19.5343 24.2808 19.5343 24.7988 19.3621C25.5964 19.0969 26.8472 18.8312 27.8669 19.29C29.0671 19.83 29.0178 21.5332 28.9515 22.4474C28.9284 22.7652 29.004 23.0841 29.1758 23.3535C29.2773 23.5126 29.3577 23.6814 29.4216 23.848C29.501 24.0551 29.5575 24.269 29.5923 24.4863C29.7766 24.3971 30.1247 24.215 30.3499 24.2469C30.3775 23.2912 30.4657 22.2609 30.4657 22.2609C31.5276 17.0593 26.6655 14.8037 22.8067 15.3295Z" fill="#2A428C"/>
<path d="M22.8067 15.3297C19.2228 15.818 18.8823 17.85 18.8807 18.5954C18.8803 18.7518 18.7937 18.8966 18.6531 18.965C16.7889 19.8719 17.794 24.2426 17.794 24.2426C17.9812 24.2551 18.262 24.4158 18.4082 24.4865C18.444 24.2638 18.5024 24.0445 18.5849 23.8326C18.6478 23.6711 18.7263 23.508 18.8246 23.3539C18.9951 23.0864 19.0728 22.7709 19.0496 22.4554C18.9826 21.5436 18.9301 19.8318 20.1336 19.2903C21.1533 18.8314 22.4041 19.0971 23.2017 19.3624C23.3988 19.4279 23.6023 19.4682 23.8071 19.4839C23.7683 19.4204 23.725 19.3586 23.6762 19.2991C22.0166 17.2781 24.0617 15.2638 24.0686 15.2569C23.6421 15.2494 23.2187 15.2736 22.8067 15.3297Z" fill="#1C2E7A"/>
<path d="M30.6677 24.3709C30.3886 24.1151 29.8326 24.2448 29.5922 24.4014C29.6449 24.7293 29.6479 25.0649 29.6023 25.3963L29.3186 27.4624C29.3186 27.629 29.3134 27.7924 29.3037 27.9529C29.9955 28.1616 30.3391 27.5405 30.397 27.1143C30.422 26.9309 30.4626 26.75 30.5192 26.5736C30.7032 25.999 31.3671 25.0118 30.6677 24.3709Z" fill="#FCAD6D"/>
<path d="M17.3328 24.3709C17.6119 24.1151 18.1679 24.2448 18.4083 24.4014C18.3556 24.7293 18.3526 25.0649 18.3982 25.3963L18.6818 27.4624C18.6818 27.629 18.6871 27.7924 18.6968 27.9529C18.005 28.1616 17.6614 27.5405 17.6034 27.1143C17.5785 26.9309 17.5378 26.75 17.4813 26.5736C17.2973 25.999 16.6334 25.0118 17.3328 24.3709Z" fill="#FD995B"/>
<path d="M29.5065 23.7631C29.4427 23.5965 29.3621 23.4278 29.2607 23.2687C29.089 22.9991 29.0133 22.6804 29.0364 22.3625C29.1025 21.4482 29.0671 19.6602 27.8669 19.1202C26.8473 18.6614 25.5967 18.9271 24.799 19.1923C24.2811 19.3646 23.7197 19.3646 23.2016 19.1923C22.404 18.9271 21.1533 18.6615 20.1338 19.1202C18.9302 19.6617 18.898 21.4584 18.9649 22.3703C18.988 22.6857 18.9104 23.0012 18.74 23.2687C18.6417 23.4228 18.5632 23.586 18.5003 23.7474C18.2964 24.2713 18.2369 24.8394 18.3132 25.3958L18.597 27.4624C18.597 30.4335 20.1831 32.453 21.5321 33.5006C22.2363 34.0475 23.1054 34.3445 24.0004 34.3445C24.8954 34.3445 25.7644 34.0475 26.4686 33.5006C27.8177 32.453 29.4038 30.4335 29.4038 27.4624L29.6875 25.3962C29.7631 24.8454 29.7057 24.2828 29.5065 23.7631Z" fill="#F9BA8F"/>
<path d="M25.3759 33.5008C24.0268 32.4532 22.4408 30.4337 22.4408 27.4626L22.157 25.396C22.0806 24.8396 22.14 24.2715 22.344 23.7476C22.4069 23.5861 22.4855 23.423 22.5837 23.2689C22.7543 23.0014 22.8319 22.6859 22.8086 22.3705C22.7478 21.542 22.7691 19.9832 23.6763 19.2989C23.5158 19.2782 23.3567 19.244 23.2016 19.1925C22.404 18.9273 21.1533 18.6617 20.1338 19.1204C18.9302 19.6619 18.898 21.4586 18.9649 22.3705C18.988 22.6859 18.9104 23.0014 18.74 23.2689C18.6417 23.423 18.5632 23.5862 18.5003 23.7476C18.2964 24.2715 18.2369 24.8396 18.3132 25.396L18.597 27.4626C18.597 30.4337 20.1831 32.4532 21.5321 33.5008C22.2363 34.0477 23.1054 34.3447 24.0004 34.3447C24.6758 34.3447 25.3361 34.1754 25.9223 33.8574C25.7316 33.754 25.5488 33.635 25.3759 33.5008Z" fill="#FCAD6D"/>
<path d="M33.9631 37.331C33.5026 37.2933 33.2577 37.1147 32.715 36.8087C31.5845 36.1712 30.414 35.6628 29.1385 35.3052C28.5155 36.2006 27.8006 36.9099 27.1313 37.4297C26.238 38.1233 25.1356 38.5001 24.0002 38.5001C22.8648 38.5001 21.7624 38.1233 20.8692 37.4297C20.1997 36.9098 19.4846 36.2003 18.8615 35.3046C17.5914 35.6613 16.4127 36.1729 15.2854 36.8086C14.7427 37.1146 14.4977 37.2932 14.0372 37.3309C11.1009 37.571 9.73768 39.5183 9.1178 41.5188C9.10383 41.5641 9.09183 41.6098 9.07861 41.6553C9.75989 42.5763 10.5253 43.4309 11.3611 44.2109C14.9867 46.605 19.3302 48 24.0001 48C28.875 48 33.3944 46.48 37.1125 43.8899C37.7788 43.2366 38.3973 42.5347 38.9599 41.788C38.9353 41.698 38.9102 41.608 38.8826 41.5188C38.2628 39.5184 36.8995 37.5711 33.9631 37.331Z" fill="#3C58A0"/>
<path d="M20.8692 37.4297C20.1997 36.9098 19.4846 36.2003 18.8615 35.3046C17.5914 35.6613 16.4127 36.1729 15.2854 36.8086C14.7427 37.1146 14.4977 37.2932 14.0372 37.3309C11.1009 37.571 9.73768 39.5183 9.1178 41.5188C9.10383 41.5641 9.09183 41.6098 9.07861 41.6553C9.75989 42.5763 10.5253 43.4309 11.3611 44.2109C12.5413 44.9902 13.7979 45.6627 15.1166 46.2167C15.1744 41.8227 15.8389 40.8828 19.987 39.4013C20.8664 39.0873 21.554 38.6418 22.0921 38.1306C21.6564 37.9554 21.2442 37.721 20.8692 37.4297Z" fill="#2A428C"/>
<path d="M38.238 17.3486L37.7562 17.9076C37.652 18.0285 37.6189 18.1954 37.669 18.347L37.9008 19.0466C37.9717 19.2606 37.8748 19.4944 37.6733 19.5955L37.0147 19.926C36.8718 19.9977 36.7771 20.1392 36.7654 20.2986L36.7111 21.0342C36.6945 21.2587 36.516 21.4373 36.2915 21.4538L35.5559 21.5081C35.3965 21.5199 35.255 21.6145 35.1833 21.7574L34.8528 22.416C34.7516 22.6175 34.5179 22.7144 34.3039 22.6434L33.6043 22.4117C33.4527 22.3614 33.2858 22.3945 33.1648 22.4989L32.606 22.9806C32.4355 23.1276 32.1832 23.1276 32.0127 22.9806L31.4538 22.4989C31.3328 22.3946 31.166 22.3615 31.0143 22.4117L30.3147 22.6434C30.1007 22.7143 29.867 22.6175 29.7658 22.416L29.4353 21.7574C29.3636 21.6145 29.2222 21.5198 29.0627 21.5081L28.3271 21.4538C28.1026 21.4372 27.9241 21.2587 27.9075 21.0342L27.8532 20.2986C27.8415 20.1393 27.7468 19.9977 27.6039 19.926L26.9453 19.5955C26.7438 19.4944 26.6469 19.2606 26.7179 19.0466L26.9497 18.347C26.9999 18.1955 26.9668 18.0286 26.8625 17.9076L26.3807 17.3487C26.2338 17.1783 26.2338 16.9259 26.3807 16.7555L26.8625 16.1965C26.9667 16.0756 26.9998 15.9087 26.9497 15.757L26.7179 15.0575C26.647 14.8434 26.7439 14.6097 26.9454 14.5085L27.604 14.1781C27.7469 14.1064 27.8416 13.9649 27.8533 13.8054L27.9076 13.0699C27.9242 12.8453 28.1027 12.6668 28.3272 12.6502L29.0628 12.596C29.2222 12.5841 29.3637 12.4895 29.4354 12.3467L29.7659 11.6881C29.8671 11.4865 30.1008 11.3897 30.3148 11.4606L31.0144 11.6924C31.166 11.7426 31.3328 11.7095 31.4539 11.6052L32.0127 11.1234C32.1832 10.9765 32.4355 10.9765 32.606 11.1234L33.1649 11.6052C33.2858 11.7095 33.4527 11.7425 33.6044 11.6924L34.304 11.4606C34.518 11.3898 34.7517 11.4866 34.8529 11.6881L35.1834 12.3467C35.2552 12.4895 35.3966 12.5842 35.556 12.596L36.2916 12.6502C36.5161 12.6668 36.6946 12.8453 36.7112 13.0699L36.7655 13.8054C36.7772 13.9648 36.8719 14.1064 37.0147 14.1781L37.6733 14.5085C37.8749 14.6097 37.9717 14.8434 37.9009 15.0575L37.6691 15.757C37.6189 15.9086 37.652 16.0755 37.7563 16.1965L38.2381 16.7554C38.3849 16.9258 38.3849 17.1782 38.238 17.3486Z" fill="#0070E0"/>
<path d="M31.0144 11.6923L30.3148 11.4605C30.1008 11.3897 29.8671 11.4865 29.7659 11.688L29.4354 12.3466C29.3637 12.4894 29.2223 12.5841 29.0628 12.5958L28.3272 12.6501C28.1027 12.6667 27.9241 12.8452 27.9076 13.0698L27.8533 13.8053C27.8416 13.9647 27.7469 14.1063 27.604 14.178L26.9454 14.5084C26.7439 14.6096 26.647 14.8432 26.7179 15.0573L26.9497 15.7569C26.9999 15.9086 26.9668 16.0754 26.8625 16.1964L26.3807 16.7553C26.2338 16.9258 26.2338 17.1782 26.3807 17.3486L26.8624 17.9074C26.9667 18.0284 26.9997 18.1953 26.9496 18.3469L26.7178 19.0465C26.6469 19.2605 26.7438 19.4943 26.9453 19.5954L27.6039 19.9259C27.7468 19.9976 27.8415 20.1391 27.8532 20.2985L27.9075 21.0341C27.9241 21.2586 28.1026 21.4371 28.3271 21.4537L29.0627 21.508C29.2221 21.5197 29.3636 21.6144 29.4353 21.7573L29.7658 22.4159C29.867 22.6174 30.1007 22.7143 30.3147 22.6434L31.0143 22.4117C31.1659 22.3614 31.3328 22.3945 31.4538 22.4988L32.0127 22.9806C32.1832 23.1275 32.4355 23.1275 32.606 22.9806L33.1648 22.4988C33.2858 22.3946 33.4526 22.3615 33.6043 22.4117L34.3039 22.6434C34.5179 22.7143 34.7516 22.6174 34.8528 22.416L35.1832 21.7574C35.255 21.6145 35.3964 21.5198 35.5559 21.5081L36.2915 21.4538C36.516 21.4372 36.6946 21.2587 36.7111 21.0342C32.9915 20.3702 34.1521 17.5056 34.1521 17.5056L33.3389 16.2081C29.7707 15.2961 31.4538 11.6052 31.4538 11.6052C31.3328 11.7094 31.166 11.7425 31.0144 11.6923Z" fill="#1886EA"/>
<path d="M31.9848 19.3636C31.7869 19.3636 31.5971 19.285 31.4571 19.1451L29.8025 17.4904C29.5111 17.1989 29.5111 16.7265 29.8025 16.4351C30.0941 16.1437 30.5664 16.1439 30.8579 16.4351L31.9847 17.562L34.125 15.4217C34.4165 15.1303 34.8889 15.1303 35.1804 15.4217C35.4718 15.7132 35.4718 16.1856 35.1804 16.4771L32.5124 19.1451C32.3725 19.285 32.1827 19.3636 31.9848 19.3636Z" fill="#E9EFFF"/>
<path d="M35.0586 45.1649C34.8835 43.4394 34.1768 42.3216 33.5236 41.6442C33.0879 41.1925 32.3228 41.5072 32.3228 42.1346V46.4438C33.2666 46.0765 34.18 45.6487 35.0586 45.1649Z" fill="#2A428C"/>
</svg>
