<svg width="48" height="48" viewBox="0 0 48 48" fill="none" xmlns="http://www.w3.org/2000/svg">
<g clip-path="url(#clip0_75_1474)">
<path opacity="0.4" d="M5.46875 8.91028V40.7373C5.46875 41.3987 6.00488 41.9348 6.66589 41.9348H41.3344C41.9954 41.9348 42.5315 41.3987 42.5315 40.7373V8.91028L24.0001 1.67102L5.46875 8.91028Z" fill="#0070E0"/>
<path d="M24 1.67102L22.7695 2.15186L40.0701 8.91028V40.7373C40.0701 41.3987 39.5339 41.9348 38.8729 41.9348H41.3342C41.9952 41.9348 42.5314 41.3987 42.5314 40.7373V8.91028L24 1.67102Z" fill="#0070E0"/>
<path d="M13.2686 19.8699V41.9348H34.7318V19.8699C34.7318 19.0573 34.0726 18.3981 33.2596 18.3981H14.7404C13.9274 18.3981 13.2686 19.0569 13.2686 19.8699Z" fill="#575B7A"/>
<path d="M17.0782 18.3981H14.7404C13.9274 18.3981 13.2686 19.0569 13.2686 19.8699V41.9348H15.6061V19.8699C15.6061 19.0569 16.2653 18.3981 17.0782 18.3981Z" fill="#252D4C"/>
<path d="M46.3283 12.5321C46.1162 12.5321 45.9009 12.4915 45.6929 12.4058L24 3.47757L2.30715 12.4058C1.45424 12.7566 0.477191 12.3501 0.126361 11.4965C-0.225201 10.6432 0.182025 9.6669 1.0353 9.31534L23.3643 0.125641C23.7715 -0.0417175 24.2285 -0.0417175 24.6361 0.125641L46.9647 9.31534C47.818 9.6669 48.2249 10.6432 47.874 11.4965C47.6082 12.1418 46.9852 12.5321 46.3283 12.5321Z" fill="#E9E9EA"/>
<path d="M33.2596 18.3981H14.7404C13.9274 18.3981 13.2686 19.0573 13.2686 19.8699V24.9554H34.7318V19.8699C34.7318 19.0569 34.0726 18.3981 33.2596 18.3981Z" fill="#E9E9EA"/>
<path d="M15.6061 19.8699C15.6061 19.0569 16.2653 18.3981 17.0782 18.3981H14.7404C14.3339 18.3981 13.9658 18.5629 13.6996 18.8291C13.533 18.9957 13.4062 19.2019 13.3345 19.4323C13.3202 19.4784 13.3081 19.5256 13.2982 19.5732C13.2788 19.6692 13.2686 19.7684 13.2686 19.8699V24.9554H15.6061V19.8699Z" fill="#C5C4CC"/>
<path d="M0 29.2178V45.7665H16.7065V29.2178C16.7065 28.7457 16.3239 28.363 15.8514 28.363H0.855103C0.38269 28.363 0 28.7457 0 29.2178Z" fill="#F9AA4B"/>
<path d="M15.8513 28.363H13.6343C14.1067 28.363 14.4894 28.7457 14.4894 29.2178V45.7665H16.7064V29.2178C16.7064 28.7457 16.3237 28.363 15.8513 28.363Z" fill="#C1762B"/>
<path d="M10.7853 34.3931L9.71851 33.5907C9.68042 33.5621 9.62842 33.5621 9.5907 33.5907L8.41772 34.4733C8.38 34.5018 8.328 34.5018 8.28992 34.4733L7.11658 33.5907C7.07849 33.5621 7.02649 33.5621 6.9884 33.5907L5.92126 34.3931C5.85132 34.4458 5.75098 34.396 5.75098 34.3081V28.363H10.9552V34.3085C10.9556 34.396 10.8552 34.4462 10.7853 34.3931Z" fill="#FFEB96"/>
<path d="M16.7065 33.2267V45.7661H29.3661V33.2267C29.3661 32.8689 29.0757 32.5789 28.7179 32.5789H17.3547C16.9966 32.5789 16.7065 32.8689 16.7065 33.2267Z" fill="#F9AA4B"/>
<path d="M28.7178 32.5789H26.4502C26.808 32.5789 27.098 32.8689 27.098 33.2267V45.7661H29.3656V33.2267C29.366 32.8689 29.0756 32.5789 28.7178 32.5789Z" fill="#C1762B"/>
<path d="M24.8789 37.1484L24.0707 36.5405C24.0421 36.5189 24.0026 36.5189 23.9736 36.5405L23.0852 37.2092C23.0566 37.2308 23.0171 37.2308 22.9885 37.2092L22.099 36.5405C22.0704 36.5189 22.0309 36.5189 22.0023 36.5405L21.1934 37.1484C21.1406 37.1884 21.0645 37.1506 21.0645 37.084V32.5789H25.0082V37.084C25.0082 37.1506 24.932 37.1884 24.8789 37.1484Z" fill="#FFEB96"/>
<path d="M13.2686 20.8447H34.7318V22.251H13.2686V20.8447Z" fill="#C5C4CC"/>
<path d="M11.7346 39.4735H4.97217C4.58398 39.4735 4.26904 39.1589 4.26904 38.7704C4.26904 38.3822 4.58398 38.0673 4.97217 38.0673H11.7346C12.1228 38.0673 12.4377 38.3822 12.4377 38.7704C12.4377 39.1589 12.1228 39.4735 11.7346 39.4735Z" fill="#C1762B"/>
<path d="M11.7346 42.516H4.97217C4.58398 42.516 4.26904 42.201 4.26904 41.8129C4.26904 41.4243 4.58398 41.1097 4.97217 41.1097H11.7346C12.1228 41.1097 12.4377 41.4243 12.4377 41.8129C12.4377 42.201 12.1228 42.516 11.7346 42.516Z" fill="#C1762B"/>
<path d="M25.3037 41.0475H20.7686C20.38 41.0475 20.0654 40.7325 20.0654 40.3444C20.0654 39.9558 20.38 39.6412 20.7686 39.6412H25.3037C25.6923 39.6412 26.0068 39.9558 26.0068 40.3444C26.0068 40.7325 25.6923 41.0475 25.3037 41.0475Z" fill="#C1762B"/>
<path d="M25.3037 43.0876H20.7686C20.38 43.0876 20.0654 42.7731 20.0654 42.3845C20.0654 41.9963 20.38 41.6814 20.7686 41.6814H25.3037C25.6923 41.6814 26.0068 41.9963 26.0068 42.3845C26.0068 42.7731 25.6923 43.0876 25.3037 43.0876Z" fill="#C1762B"/>
<path d="M22.1564 14.7792H18.4067C18.0186 14.7792 17.7036 14.4642 17.7036 14.076C17.7036 13.6875 18.0186 13.3729 18.4067 13.3729H22.1564C22.5446 13.3729 22.8595 13.6875 22.8595 14.076C22.8595 14.4642 22.5446 14.7792 22.1564 14.7792Z" fill="#0070E0"/>
<path d="M29.5934 14.7792H25.8438C25.4556 14.7792 25.1406 14.4642 25.1406 14.076C25.1406 13.6875 25.4556 13.3729 25.8438 13.3729H29.5934C29.9816 13.3729 30.2965 13.6875 30.2965 14.076C30.2965 14.4642 29.9816 14.7792 29.5934 14.7792Z" fill="#0070E0"/>
</g>
<defs>
<clipPath id="clip0_75_1474">
<rect width="48" height="48" fill="white"/>
</clipPath>
</defs>
</svg>
