<svg width="48" height="48" viewBox="0 0 48 48" fill="none" xmlns="http://www.w3.org/2000/svg">
<g clip-path="url(#clip0_75_969)">
<path d="M32.8977 7.93978C32.736 7.64016 32.4312 7.45462 32.1005 7.45462C30.4407 7.45462 20.4378 7.45462 18.7518 7.45462C17.0687 7.45462 7.06887 7.45462 5.40631 7.45462C5.07368 7.45462 4.76703 7.64128 4.60446 7.94259L0.356934 15.8184C0.695371 15.4338 1.18081 15.1909 1.72212 15.1909H7.30803H30.1957H35.7816C36.3229 15.1909 36.8084 15.4337 37.1468 15.8184L32.8977 7.93978Z" fill="#F8A748"/>
<path d="M37.5319 16.7444C37.5319 15.7284 36.7083 14.9048 35.6922 14.9048H30.1404H7.39144H1.83966C0.823593 14.9048 0 15.7284 0 16.7444C0 18.0361 0 43.8372 0 45.2555C0 46.2714 0.823593 47.0951 1.83966 47.0951H35.6923C36.7083 47.0951 37.532 46.2715 37.532 45.2555C37.5319 43.8453 37.5319 18.0332 37.5319 16.7444Z" fill="#FFC247"/>
<path d="M14.5601 7.45462V14.8993H22.9716V7.45462C21.9547 7.45462 15.5836 7.45462 14.5601 7.45462Z" fill="#DDDDDD"/>
<path d="M47.9999 10.4294C47.9999 9.60113 47.0234 8.93409 46.8251 8.19188C46.6205 7.42603 47.1244 6.35663 46.725 5.66634C46.3211 4.96809 45.1351 4.86769 44.5863 4.31859C44.0351 3.76753 43.9399 2.58563 43.2388 2.17988C42.5483 1.78041 41.4779 2.28422 40.7131 2.07975C39.971 1.88147 39.3029 0.904969 38.4754 0.904969C37.647 0.904969 36.9801 1.88138 36.2379 2.07975C35.4727 2.28441 34.4032 1.78031 33.7124 2.17988C33.0137 2.58413 32.9139 3.7695 32.3648 4.3185C31.8139 4.86956 30.6311 4.96613 30.2261 5.66625C29.8266 6.35653 30.3304 7.42697 30.126 8.19178C29.9283 8.93138 28.9512 9.60347 28.9512 10.4294C28.9512 11.2579 29.9276 11.9247 30.126 12.667C30.3301 13.4308 29.8274 14.5036 30.226 15.1926C30.63 15.8908 31.8159 15.9913 32.3647 16.5403C32.916 17.0914 33.0111 18.2733 33.7123 18.679C34.404 19.0792 35.472 18.5741 36.2379 18.7792C36.9778 18.9769 37.6493 19.9539 38.4755 19.9539C39.3039 19.9539 39.9708 18.9775 40.7131 18.7792C41.478 18.5744 42.5482 19.0787 43.2387 18.679C43.9373 18.2749 44.0371 17.0894 44.5862 16.5404C45.1371 15.9893 46.32 15.8928 46.725 15.1927C47.1244 14.5024 46.6207 13.4319 46.8251 12.6671C47.0234 11.9248 47.9999 11.2569 47.9999 10.4294Z" fill="white"/>
<path d="M16.0158 23.9942C17.3723 23.9942 17.3723 24.9901 18.7287 24.9901C20.0854 24.9901 20.0854 23.9942 21.4421 23.9942C22.0325 23.9942 22.3661 24.1827 22.6662 24.3958C22.7944 24.4867 22.9716 24.3954 22.9716 24.2383V14.8993H14.5601V24.1914C14.5601 24.3455 14.7322 24.4354 14.8595 24.3487C15.1431 24.1557 15.4694 23.9942 16.0158 23.9942Z" fill="#EFEFEF"/>
<path d="M31.024 42.7906H20.7954C19.9144 42.7906 19.2002 42.0764 19.2002 41.1953C19.2002 40.3143 19.9144 39.6 20.7954 39.6H31.024C31.9051 39.6 32.6193 40.3142 32.6193 41.1953C32.6193 42.0764 31.9051 42.7906 31.024 42.7906Z" fill="#F8A748"/>
<path d="M23.3254 41.1953C23.3254 40.3143 24.0396 39.6001 24.9206 39.6001H20.7954C19.9144 39.6001 19.2002 40.3143 19.2002 41.1953C19.2002 42.0764 19.9144 42.7906 20.7954 42.7906H24.9206C24.0397 42.7906 23.3254 42.0764 23.3254 41.1953Z" fill="#F38D1A"/>
<path d="M37.485 13.6183C37.1558 13.6183 36.8402 13.4875 36.6074 13.2548L34.8923 11.5398C34.4076 11.0551 34.4076 10.2693 34.8923 9.78469C35.377 9.30009 36.1628 9.30009 36.6474 9.78469L37.4849 10.6222L39.9055 8.20162C40.3902 7.71694 41.1759 7.71694 41.6607 8.20162C42.1453 8.68631 42.1453 9.47203 41.6607 9.95672L38.3625 13.2549C38.1298 13.4876 37.814 13.6183 37.485 13.6183Z" fill="#0070E0"/>
</g>
<defs>
<clipPath id="clip0_75_969">
<rect width="48" height="48" fill="white"/>
</clipPath>
</defs>
</svg>
