<svg width="36" height="36" viewBox="0 0 36 36" fill="none" xmlns="http://www.w3.org/2000/svg">
<g clip-path="url(#clip0_32_80)">
<path d="M18 36C27.9411 36 36 27.9411 36 18C36 8.05888 27.9411 0 18 0C8.05888 0 0 8.05888 0 18C0 27.9411 8.05888 36 18 36Z" fill="#665CAC"/>
<path d="M19.8947 8.52632H16.1053C14.3465 8.52632 12.6597 9.225 11.416 10.4687C10.1724 11.7123 9.47369 13.3991 9.47369 15.1579V18C9.47317 19.2554 9.829 20.4852 10.4998 21.5463C11.1706 22.6075 12.1289 23.4564 13.2632 23.9945V27.1611C13.2643 27.2228 13.2834 27.2829 13.3182 27.334C13.353 27.385 13.402 27.4248 13.4591 27.4485C13.5161 27.4721 13.5789 27.4786 13.6396 27.4671C13.7003 27.4556 13.7563 27.4266 13.8008 27.3837L16.5529 24.6316H19.8947C21.6536 24.6316 23.3403 23.9329 24.584 22.6892C25.8276 21.4456 26.5263 19.7588 26.5263 18V15.1579C26.5263 13.3991 25.8276 11.7123 24.584 10.4687C23.3403 9.225 21.6536 8.52632 19.8947 8.52632ZM22.3769 20.9558L21.4295 21.9032C20.4205 22.8908 17.7869 21.7634 15.4658 19.3926C13.1447 17.0218 12.1263 14.3621 13.0974 13.3745L14.0447 12.4271C14.2304 12.2604 14.4718 12.1694 14.7213 12.1721C14.9708 12.1747 15.2103 12.2708 15.3924 12.4413L16.7755 13.8624C16.8854 13.9757 16.9646 14.1152 17.0057 14.2676C17.0469 14.42 17.0486 14.5803 17.0107 14.7336C16.9728 14.8868 16.8965 15.0279 16.7891 15.1435C16.6817 15.2592 16.5466 15.3456 16.3966 15.3947C16.1742 15.463 15.9867 15.6142 15.8729 15.8171C15.7591 16.02 15.7278 16.2589 15.7855 16.4842C16.0224 17.5358 17.3582 18.8526 18.3529 19.1108C18.5772 19.1642 18.8132 19.1341 19.0168 19.0259C19.2204 18.9178 19.3776 18.7391 19.459 18.5234C19.5115 18.373 19.6019 18.2386 19.7214 18.1332C19.8409 18.0278 19.9856 17.9549 20.1414 17.9216C20.2973 17.8883 20.4591 17.8956 20.6112 17.943C20.7634 17.9903 20.9008 18.076 21.0103 18.1918L22.3911 19.6129C22.5569 19.798 22.6474 20.0386 22.6448 20.2871C22.6421 20.5356 22.5466 20.7742 22.3769 20.9558ZM18.8621 13.0263C18.7679 13.0259 18.6738 13.0314 18.5803 13.0429C18.5391 13.0474 18.4974 13.0438 18.4576 13.0321C18.4178 13.0205 18.3806 13.0012 18.3483 12.9753C18.316 12.9493 18.2891 12.9172 18.2691 12.8809C18.2492 12.8446 18.2366 12.8046 18.2321 12.7634C18.2276 12.7222 18.2313 12.6805 18.2429 12.6407C18.2545 12.6009 18.2738 12.5638 18.2997 12.5315C18.3257 12.4991 18.3578 12.4722 18.3941 12.4523C18.4305 12.4324 18.4704 12.4198 18.5116 12.4153C18.6279 12.4019 18.745 12.3955 18.8621 12.3963C19.7003 12.3957 20.5044 12.7279 21.0977 13.3199C21.6911 13.9119 22.0251 14.7153 22.0263 15.5534C22.0271 15.6705 22.0208 15.7876 22.0074 15.9039C22.0029 15.9452 21.9903 15.9851 21.9703 16.0214C21.9504 16.0578 21.9235 16.0898 21.8912 16.1158C21.8589 16.1417 21.8217 16.1611 21.7819 16.1727C21.7421 16.1843 21.7004 16.1879 21.6592 16.1834C21.618 16.1789 21.5781 16.1663 21.5417 16.1464C21.5054 16.1265 21.4733 16.0996 21.4474 16.0672C21.4214 16.0349 21.4021 15.9978 21.3905 15.958C21.3789 15.9182 21.3752 15.8765 21.3797 15.8353C21.3901 15.7417 21.3956 15.6476 21.3963 15.5534C21.3951 14.8823 21.1274 14.2392 20.6523 13.7654C20.1771 13.2915 19.5332 13.0257 18.8621 13.0263ZM20.7569 15.5534C20.75 15.6326 20.7137 15.7062 20.6552 15.7599C20.5966 15.8136 20.5201 15.8434 20.4407 15.8434C20.3612 15.8434 20.2847 15.8136 20.2262 15.7599C20.1676 15.7062 20.1313 15.6326 20.1245 15.5534C20.1245 15.2186 19.9915 14.8975 19.7547 14.6608C19.518 14.4241 19.1969 14.2911 18.8621 14.2911C18.8183 14.2948 18.7742 14.2895 18.7325 14.2753C18.6909 14.2612 18.6526 14.2385 18.6202 14.2088C18.5878 14.179 18.5619 14.1429 18.5442 14.1026C18.5265 14.0624 18.5174 14.0189 18.5174 13.9749C18.5174 13.9309 18.5265 13.8874 18.5442 13.8471C18.5619 13.8068 18.5878 13.7707 18.6202 13.741C18.6526 13.7112 18.6909 13.6886 18.7325 13.6744C18.7742 13.6602 18.8183 13.6549 18.8621 13.6587C19.3646 13.6587 19.8466 13.8583 20.2019 14.2136C20.5572 14.569 20.7569 15.0509 20.7569 15.5534ZM23.1655 16.5789C23.1585 16.622 23.1427 16.6632 23.1191 16.6998C23.0955 16.7365 23.0646 16.7679 23.0283 16.7921C22.992 16.8163 22.9511 16.8327 22.9081 16.8404C22.8652 16.8481 22.8211 16.8468 22.7787 16.8367C22.7362 16.8266 22.6963 16.8078 22.6615 16.7816C22.6266 16.7554 22.5976 16.7222 22.5761 16.6843C22.5546 16.6463 22.5412 16.6043 22.5366 16.5609C22.5321 16.5175 22.5366 16.4737 22.5497 16.4321C22.6181 16.1458 22.6523 15.8525 22.6516 15.5582C22.6516 14.5531 22.2523 13.5893 21.5417 12.8786C20.831 12.1679 19.8671 11.7687 18.8621 11.7687C18.765 11.7687 18.6655 11.7687 18.5684 11.7687C18.5271 11.7718 18.4855 11.7667 18.4461 11.7538C18.4067 11.7408 18.3702 11.7202 18.3388 11.6932C18.2752 11.6385 18.236 11.5609 18.2297 11.4774C18.2235 11.3938 18.2506 11.3112 18.3053 11.2477C18.3599 11.1842 18.4375 11.145 18.5211 11.1387C18.6347 11.1292 18.7484 11.1245 18.8621 11.1245C20.0355 11.1264 21.1602 11.5938 21.9893 12.4242C22.8183 13.2546 23.284 14.38 23.284 15.5534C23.2841 15.8987 23.2443 16.2428 23.1655 16.5789Z" fill="white"/>
</g>
<defs>
<clipPath id="clip0_32_80">
<rect width="36" height="36" fill="white"/>
</clipPath>
</defs>
</svg>
