<svg width="28" height="28" viewBox="0 0 28 28" fill="none" xmlns="http://www.w3.org/2000/svg">
<path d="M23.7996 18.8746V21.8252C23.8007 22.0991 23.7445 22.3702 23.6345 22.6212C23.5246 22.8721 23.3633 23.0974 23.1611 23.2826C22.9588 23.4678 22.7201 23.6088 22.4601 23.6965C22.2001 23.7843 21.9246 23.8169 21.6512 23.7922C18.6187 23.4634 15.7058 22.4292 13.1465 20.7728C10.7654 19.2627 8.74667 17.248 7.23363 14.8716C5.56814 12.3058 4.53167 9.38447 4.20819 6.34439C4.18357 6.07241 4.21595 5.79829 4.30329 5.53949C4.39063 5.28069 4.53101 5.04287 4.71549 4.84118C4.89996 4.63949 5.1245 4.47834 5.3748 4.368C5.6251 4.25766 5.89568 4.20055 6.1693 4.20029H9.12575C9.60401 4.19559 10.0677 4.36462 10.4303 4.67586C10.7929 4.9871 11.0298 5.41932 11.0967 5.89196C11.2215 6.83622 11.4529 7.76335 11.7866 8.65568C11.9191 9.00771 11.9478 9.3903 11.8692 9.7581C11.7906 10.1259 11.608 10.4635 11.3431 10.7309L10.0915 11.98C11.4944 14.4423 13.5372 16.4811 16.0044 17.8812L17.256 16.6321C17.5239 16.3677 17.8622 16.1854 18.2307 16.107C18.5993 16.0286 18.9826 16.0572 19.3354 16.1895C20.2295 16.5225 21.1584 16.7535 22.1046 16.878C22.5833 16.9454 23.0205 17.186 23.333 17.5542C23.6455 17.9223 23.8116 18.3922 23.7996 18.8746Z" stroke="#0070E0" stroke-width="2" stroke-linecap="round" stroke-linejoin="round"/>
</svg>
