<svg width="36" height="36" viewBox="0 0 36 36" fill="none" xmlns="http://www.w3.org/2000/svg">
<g clip-path="url(#clip0_32_87)">
<path fill-rule="evenodd" clip-rule="evenodd" d="M18 0C8.0595 0 0 8.0595 0 18C0 27.9405 8.0595 36 18 36C27.9405 36 36 27.9405 36 18C36 8.0595 27.9405 0 18 0ZM26.343 12.2415C26.073 15.087 24.9 21.9945 24.3045 25.182C24.0525 26.532 23.5545 26.9835 23.0745 27.027C22.029 27.123 21.2355 26.3355 20.223 25.6725C18.639 24.6345 17.7435 23.988 16.206 22.974C14.4285 21.8025 15.5805 21.159 16.593 20.1075C16.8585 19.8315 21.4635 15.642 21.5535 15.2625C21.564 15.2145 21.576 15.0375 21.4695 14.9445C21.363 14.8515 21.2085 14.883 21.0975 14.9085C20.9385 14.9445 18.408 16.617 13.5045 19.926C12.786 20.4195 12.135 20.6595 11.5515 20.6475C10.9095 20.634 9.6735 20.2845 8.754 19.9845C7.6275 19.6185 6.7305 19.4235 6.8085 18.8025C6.849 18.4785 7.2945 18.147 8.1465 17.808C13.3935 15.522 16.893 14.0145 18.6435 13.2855C23.643 11.2065 24.681 10.845 25.359 10.833C26.208 10.821 26.412 11.5215 26.343 12.2415Z" fill="#28A8E9"/>
</g>
<defs>
<clipPath id="clip0_32_87">
<rect width="36" height="36" fill="white"/>
</clipPath>
</defs>
</svg>
