<svg width="28" height="28" viewBox="0 0 28 28" fill="none" xmlns="http://www.w3.org/2000/svg">
<path d="M14.0002 18.6668C16.5775 18.6668 18.6668 16.5775 18.6668 14.0002C18.6668 11.4228 16.5775 9.3335 14.0002 9.3335C11.4228 9.3335 9.3335 11.4228 9.3335 14.0002C9.3335 16.5775 11.4228 18.6668 14.0002 18.6668Z" stroke="#0070E0" stroke-width="2" stroke-linecap="round" stroke-linejoin="round"/>
<path d="M18.6668 9.33326V15.1666C18.6668 16.0949 19.0356 16.9851 19.692 17.6415C20.3483 18.2978 21.2386 18.6666 22.1668 18.6666C23.0951 18.6666 23.9853 18.2978 24.6417 17.6415C25.2981 16.9851 25.6668 16.0949 25.6668 15.1666V13.9999C25.6667 11.3668 24.7758 8.81115 23.139 6.74855C21.5022 4.68594 19.2158 3.23769 16.6516 2.63927C14.0874 2.04086 11.3961 2.32748 9.01541 3.45252C6.63473 4.57757 4.70464 6.47488 3.53897 8.83594C2.37331 11.197 2.04063 13.883 2.59504 16.4571C3.14944 19.0312 4.55831 21.342 6.59258 23.0139C8.62684 24.6858 11.1668 25.6203 13.7996 25.6656C16.4323 25.7109 19.003 24.8642 21.0935 23.2633" stroke="#0070E0" stroke-width="2" stroke-linecap="round" stroke-linejoin="round"/>
</svg>
