<svg width="32" height="32" viewBox="0 0 32 32" fill="none" xmlns="http://www.w3.org/2000/svg">
<path d="M24.9994 20.4765V23.1862C25.0005 23.4377 24.9488 23.6867 24.8479 23.9172C24.7469 24.1477 24.5988 24.3546 24.413 24.5247C24.2273 24.6947 24.008 24.8242 23.7693 24.9048C23.5305 24.9854 23.2775 25.0153 23.0265 24.9927C20.2415 24.6907 17.5664 23.7409 15.216 22.2197C13.0293 20.8329 11.1753 18.9827 9.7858 16.8003C8.25627 14.4439 7.30442 11.7611 7.00735 8.96915C6.98473 8.71938 7.01447 8.46764 7.09468 8.22996C7.17489 7.99229 7.30381 7.77389 7.47323 7.58866C7.64265 7.40343 7.84885 7.25544 8.07872 7.15411C8.30858 7.05278 8.55707 7.00032 8.80837 7.00009H11.5235C11.9627 6.99577 12.3885 7.151 12.7215 7.43683C13.0545 7.72267 13.2721 8.11961 13.3335 8.55366C13.4481 9.42084 13.6607 10.2723 13.9671 11.0918C14.0888 11.4151 14.1152 11.7664 14.043 12.1042C13.9708 12.442 13.8031 12.752 13.5598 12.9976L12.4104 14.1447C13.6988 16.406 15.5748 18.2784 17.8406 19.5642L18.99 18.4171C19.2361 18.1742 19.5467 18.0069 19.8852 17.9348C20.2236 17.8628 20.5757 17.8891 20.8996 18.0106C21.7207 18.3164 22.5739 18.5285 23.4428 18.6429C23.8824 18.7048 24.2839 18.9258 24.5709 19.2639C24.858 19.6019 25.0105 20.0335 24.9994 20.4765Z" stroke="white" stroke-width="2" stroke-linecap="round" stroke-linejoin="round"/>
</svg>
