<?xml version="1.0" encoding="utf-8"?><svg width="36" height="36" fill="none" xmlns="http://www.w3.org/2000/svg" viewBox="0 0 36 36"><g clip-path="url(#nclip0_32_80)"><path d="M18 36c9.941 0 18-8.059 18-18S27.941 0 18 0 0 8.059 0 18s8.059 18 18 18z" fill="#665CAC"/><path d="M19.895 8.526h-3.79a6.632 6.632 0 00-6.631 6.632V18a6.632 6.632 0 003.79 5.994v3.167a.317.317 0 00.537.223l2.752-2.752h3.342A6.632 6.632 0 0026.526 18v-2.842a6.632 6.632 0 00-6.631-6.632zm2.482 12.43l-.947.947c-1.01.988-3.643-.14-5.964-2.51-2.321-2.371-3.34-5.03-2.369-6.019l.948-.947a.997.997 0 011.347.014l1.384 1.421a.93.93 0 01-.38 1.533.905.905 0 00-.61 1.09c.236 1.05 1.572 2.368 2.567 2.626a.947.947 0 001.106-.588.928.928 0 011.551-.331l1.381 1.42a.995.995 0 01-.014 1.344zm-3.515-7.93a2.23 2.23 0 00-.282.017.314.314 0 01-.348-.28.316.316 0 01.28-.348 3.162 3.162 0 013.496 3.489.314.314 0 01-.226.269.316.316 0 01-.402-.338 2.532 2.532 0 00-2.518-2.809zm1.895 2.527a.318.318 0 01-.633 0 1.262 1.262 0 00-1.262-1.262.319.319 0 01-.318-.444.317.317 0 01.318-.188 1.895 1.895 0 011.895 1.894zm2.409 1.026a.317.317 0 11-.616-.147 3.79 3.79 0 00-3.688-4.663h-.294a.317.317 0 01-.338-.292.316.316 0 01.291-.338 4.43 4.43 0 014.644 5.44z" fill="#fff"/></g><defs><clipPath id="nclip0_32_80"><path fill="#fff" d="M0 0h36v36H0z"/></clipPath></defs></svg>