<?xml version="1.0" encoding="utf-8"?><svg width="28" height="28" fill="none" xmlns="http://www.w3.org/2000/svg" viewBox="0 0 28 28"><path d="M23.8 18.875v2.95a1.963 1.963 0 01-1.34 1.872c-.26.087-.535.12-.809.095a19.527 19.527 0 01-8.505-3.02 19.198 19.198 0 01-5.912-5.9 19.44 19.44 0 01-3.026-8.528 1.964 1.964 0 011.167-1.976c.25-.11.52-.167.794-.168h2.957a1.973 1.973 0 011.97 1.692c.126.944.357 1.871.69 2.764a1.964 1.964 0 01-.443 2.075l-1.252 1.249a15.752 15.752 0 005.913 5.901l1.252-1.249a1.972 1.972 0 012.08-.443 12.67 12.67 0 002.769.689 1.972 1.972 0 011.695 1.997z" stroke="#0070E0" stroke-width="2" stroke-linecap="round" stroke-linejoin="round"/></svg>