<?xml version="1.0" encoding="utf-8"?><svg width="36" height="36" fill="none" xmlns="http://www.w3.org/2000/svg" viewBox="0 0 36 36"><g clip-path="url(#lclip0_32_87)"><path fill-rule="evenodd" clip-rule="evenodd" d="M18 0C8.06 0 0 8.06 0 18s8.06 18 18 18 18-8.06 18-18S27.94 0 18 0zm8.343 12.242c-.27 2.845-1.443 9.752-2.038 12.94-.253 1.35-.75 1.802-1.23 1.845-1.046.096-1.84-.692-2.852-1.355-1.584-1.038-2.48-1.684-4.017-2.698-1.777-1.172-.625-1.815.387-2.866.265-.277 4.87-4.466 4.96-4.846.011-.048.023-.225-.084-.318-.106-.093-.26-.061-.372-.036-.159.037-2.689 1.709-7.593 5.018-.718.494-1.369.734-1.952.722-.643-.014-1.878-.363-2.798-.663-1.126-.366-2.023-.561-1.945-1.183.04-.323.486-.655 1.337-.994 5.247-2.286 8.747-3.793 10.497-4.522 5-2.08 6.038-2.441 6.716-2.453.849-.012 1.053.688.984 1.409z" fill="#28A8E9"/></g><defs><clipPath id="lclip0_32_87"><path fill="#fff" d="M0 0h36v36H0z"/></clipPath></defs></svg>