<?xml version="1.0" encoding="utf-8"?><svg width="32" height="32" fill="none" xmlns="http://www.w3.org/2000/svg" viewBox="0 0 32 32"><path d="M25 20.477v2.71a1.803 1.803 0 01-1.23 1.718c-.24.08-.492.11-.744.088a17.933 17.933 0 01-7.81-2.773 17.63 17.63 0 01-5.43-5.42 17.852 17.852 0 01-2.779-7.83A1.803 1.803 0 018.08 7.153c.23-.101.478-.154.73-.154h2.715a1.812 1.812 0 011.81 1.554c.114.867.327 1.718.633 2.538a1.803 1.803 0 01-.407 1.906l-1.15 1.147a14.467 14.467 0 005.43 5.42l1.15-1.148a1.811 1.811 0 011.91-.406c.82.305 1.674.518 2.543.632a1.81 1.81 0 011.556 1.834z" stroke="#fff" stroke-width="2" stroke-linecap="round" stroke-linejoin="round"/></svg>