<?xml version="1.0" encoding="utf-8"?><svg viewBox="0 0 36 36" xmlns="http://www.w3.org/2000/svg" xmlns:xlink="http://www.w3.org/1999/xlink"><style>:root>svg{display:none}:root>svg:target{display:block}</style><svg fill="none" viewBox="0 0 12 20" id="arrow-left" xmlns="http://www.w3.org/2000/svg"><path d="M10 2l-8 8 8 8" stroke="#0070E0" stroke-width="3" stroke-linecap="round" stroke-linejoin="round"/></svg><svg fill="none" viewBox="0 0 12 20" id="arrow-right" xmlns="http://www.w3.org/2000/svg"><path d="M2 18l8-8-8-8" stroke="#0070E0" stroke-width="3" stroke-linecap="round" stroke-linejoin="round"/></svg><svg fill="none" viewBox="0 0 28 28" id="at-sign" xmlns="http://www.w3.org/2000/svg"><path d="M14 18.667a4.667 4.667 0 100-9.333 4.667 4.667 0 000 9.333z" stroke="#0070E0" stroke-width="2" stroke-linecap="round" stroke-linejoin="round"/><path d="M18.667 9.333v5.834a3.5 3.5 0 007 0V14a11.666 11.666 0 10-4.574 9.263" stroke="#0070E0" stroke-width="2" stroke-linecap="round" stroke-linejoin="round"/></svg><svg viewBox="0 0 24 24" id="ic_close" xmlns="http://www.w3.org/2000/svg"><path d="M0 0h24v24H0V0z" fill="none"/><path d="M19 6.41L17.59 5 12 10.59 6.41 5 5 6.41 10.59 12 5 17.59 6.41 19 12 13.41 17.59 19 19 17.59 13.41 12 19 6.41z"/></svg><svg viewBox="0 0 24 24" id="ic_expand" xmlns="http://www.w3.org/2000/svg"><path d="M24 24H0V0h24v24z" fill="none" opacity=".87"/><path d="M16.59 8.59L12 13.17 7.41 8.59 6 10l6 6 6-6-1.41-1.41z"/></svg><svg viewBox="0 0 24 24" id="ic_person" xmlns="http://www.w3.org/2000/svg"><path d="M0 0h24v24H0V0z" fill="none"/><path d="M12 2C6.48 2 2 6.48 2 12s4.48 10 10 10 10-4.48 10-10S17.52 2 12 2zM7.07 18.28c.43-.9 3.05-1.78 4.93-1.78s4.51.88 4.93 1.78C15.57 19.36 13.86 20 12 20s-3.57-.64-4.93-1.72zm11.29-1.45c-1.43-1.74-4.9-2.33-6.36-2.33s-4.93.59-6.36 2.33A7.95 7.95 0 014 12c0-4.41 3.59-8 8-8s8 3.59 8 8c0 1.82-.62 3.49-1.64 4.83zM12 6c-1.94 0-3.5 1.56-3.5 3.5S10.06 13 12 13s3.5-1.56 3.5-3.5S13.94 6 12 6zm0 5c-.83 0-1.5-.67-1.5-1.5S11.17 8 12 8s1.5.67 1.5 1.5S12.83 11 12 11z"/></svg><svg viewBox="0 0 24 24" id="ic_up" xmlns="http://www.w3.org/2000/svg"><path d="M0 0h24v24H0V0z" fill="none"/><path d="M4 12l1.41 1.41L11 7.83V20h2V7.83l5.58 5.59L20 12l-8-8-8 8z"/></svg><svg fill="none" viewBox="0 0 32 32" id="icon_close_32" xmlns="http://www.w3.org/2000/svg"><path d="M22 10L10 22M10 10l12 12" stroke="#fff" stroke-width="2" stroke-linecap="round" stroke-linejoin="round"/></svg><svg fill="none" viewBox="0 0 32 32" id="icon_personal" xmlns="http://www.w3.org/2000/svg"><path d="M24 25v-2a4 4 0 00-4-4h-8a4 4 0 00-4 4v2M16 15a4 4 0 100-8 4 4 0 000 8z" stroke="#fff" stroke-width="2" stroke-linecap="round" stroke-linejoin="round"/></svg><svg fill="none" viewBox="0 0 32 32" id="icon_phone" xmlns="http://www.w3.org/2000/svg"><path d="M25 20.477v2.71a1.803 1.803 0 01-1.23 1.718c-.24.08-.492.11-.744.088a17.933 17.933 0 01-7.81-2.773 17.63 17.63 0 01-5.43-5.42 17.852 17.852 0 01-2.779-7.83A1.803 1.803 0 018.08 7.153c.23-.101.478-.154.73-.154h2.715a1.812 1.812 0 011.81 1.554c.114.867.327 1.718.633 2.538a1.803 1.803 0 01-.407 1.906l-1.15 1.147a14.467 14.467 0 005.43 5.42l1.15-1.148a1.811 1.811 0 011.91-.406c.82.305 1.674.518 2.543.632a1.81 1.81 0 011.556 1.834z" stroke="#fff" stroke-width="2" stroke-linecap="round" stroke-linejoin="round"/></svg><svg fill="none" viewBox="0 0 28 28" id="icon_phone_small" xmlns="http://www.w3.org/2000/svg"><path d="M23.8 18.875v2.95a1.963 1.963 0 01-1.34 1.872c-.26.087-.535.12-.809.095a19.527 19.527 0 01-8.505-3.02 19.198 19.198 0 01-5.912-5.9 19.44 19.44 0 01-3.026-8.528 1.964 1.964 0 011.167-1.976c.25-.11.52-.167.794-.168h2.957a1.973 1.973 0 011.97 1.692c.126.944.357 1.871.69 2.764a1.964 1.964 0 01-.443 2.075l-1.252 1.249a15.752 15.752 0 005.913 5.901l1.252-1.249a1.972 1.972 0 012.08-.443 12.67 12.67 0 002.769.689 1.972 1.972 0 011.695 1.997z" stroke="#0070E0" stroke-width="2" stroke-linecap="round" stroke-linejoin="round"/></svg><svg fill="none" viewBox="0 0 36 36" id="icon_telegram" xmlns="http://www.w3.org/2000/svg"><g clip-path="url(#lclip0_32_87)"><path fill-rule="evenodd" clip-rule="evenodd" d="M18 0C8.06 0 0 8.06 0 18s8.06 18 18 18 18-8.06 18-18S27.94 0 18 0zm8.343 12.242c-.27 2.845-1.443 9.752-2.038 12.94-.253 1.35-.75 1.802-1.23 1.845-1.046.096-1.84-.692-2.852-1.355-1.584-1.038-2.48-1.684-4.017-2.698-1.777-1.172-.625-1.815.387-2.866.265-.277 4.87-4.466 4.96-4.846.011-.048.023-.225-.084-.318-.106-.093-.26-.061-.372-.036-.159.037-2.689 1.709-7.593 5.018-.718.494-1.369.734-1.952.722-.643-.014-1.878-.363-2.798-.663-1.126-.366-2.023-.561-1.945-1.183.04-.323.486-.655 1.337-.994 5.247-2.286 8.747-3.793 10.497-4.522 5-2.08 6.038-2.441 6.716-2.453.849-.012 1.053.688.984 1.409z" fill="#28A8E9"/></g><defs><clipPath id="lclip0_32_87"><path fill="#fff" d="M0 0h36v36H0z"/></clipPath></defs></svg><svg fill="none" viewBox="0 0 16 16" id="icon_user" xmlns="http://www.w3.org/2000/svg"><path d="M14.222 15v-1.556a3.111 3.111 0 00-3.11-3.11H4.888a3.11 3.11 0 00-3.111 3.11V15M8 7.222A3.111 3.111 0 108 1a3.111 3.111 0 000 6.222z" stroke="#fff" stroke-width="2" stroke-linecap="round" stroke-linejoin="round"/></svg><svg fill="none" viewBox="0 0 36 36" id="icon_viber" xmlns="http://www.w3.org/2000/svg"><g clip-path="url(#nclip0_32_80)"><path d="M18 36c9.941 0 18-8.059 18-18S27.941 0 18 0 0 8.059 0 18s8.059 18 18 18z" fill="#665CAC"/><path d="M19.895 8.526h-3.79a6.632 6.632 0 00-6.631 6.632V18a6.632 6.632 0 003.79 5.994v3.167a.317.317 0 00.537.223l2.752-2.752h3.342A6.632 6.632 0 0026.526 18v-2.842a6.632 6.632 0 00-6.631-6.632zm2.482 12.43l-.947.947c-1.01.988-3.643-.14-5.964-2.51-2.321-2.371-3.34-5.03-2.369-6.019l.948-.947a.997.997 0 011.347.014l1.384 1.421a.93.93 0 01-.38 1.533.905.905 0 00-.61 1.09c.236 1.05 1.572 2.368 2.567 2.626a.947.947 0 001.106-.588.928.928 0 011.551-.331l1.381 1.42a.995.995 0 01-.014 1.344zm-3.515-7.93a2.23 2.23 0 00-.282.017.314.314 0 01-.348-.28.316.316 0 01.28-.348 3.162 3.162 0 013.496 3.489.314.314 0 01-.226.269.316.316 0 01-.402-.338 2.532 2.532 0 00-2.518-2.809zm1.895 2.527a.318.318 0 01-.633 0 1.262 1.262 0 00-1.262-1.262.319.319 0 01-.318-.444.317.317 0 01.318-.188 1.895 1.895 0 011.895 1.894zm2.409 1.026a.317.317 0 11-.616-.147 3.79 3.79 0 00-3.688-4.663h-.294a.317.317 0 01-.338-.292.316.316 0 01.291-.338 4.43 4.43 0 014.644 5.44z" fill="#fff"/></g><defs><clipPath id="nclip0_32_80"><path fill="#fff" d="M0 0h36v36H0z"/></clipPath></defs></svg><svg fill="none" viewBox="0 0 28 28" id="map-pin" xmlns="http://www.w3.org/2000/svg"><path d="M24.5 11.666c0 8.167-10.5 15.167-10.5 15.167s-10.5-7-10.5-15.166a10.5 10.5 0 0121 0z" stroke="#0070E0" stroke-width="2" stroke-linecap="round" stroke-linejoin="round"/><path d="M14 15.166a3.5 3.5 0 100-7 3.5 3.5 0 000 7z" stroke="#0070E0" stroke-width="2" stroke-linecap="round" stroke-linejoin="round"/></svg></svg>